<svg width="20" height="20" viewBox="0 0 20 20" fill="none" xmlns="http://www.w3.org/2000/svg">
<g clip-path="url(#clip0_1276_23950)">
<path d="M4.99999 3.33301H13.3333L16.6667 6.66634V14.9997C16.6667 15.4417 16.4911 15.8656 16.1785 16.1782C15.8659 16.4907 15.442 16.6663 15 16.6663H4.99999C4.55797 16.6663 4.13404 16.4907 3.82148 16.1782C3.50892 15.8656 3.33333 15.4417 3.33333 14.9997V4.99967C3.33333 4.55765 3.50892 4.13372 3.82148 3.82116C4.13404 3.5086 4.55797 3.33301 4.99999 3.33301" stroke="#5F647E" stroke-width="1.5" stroke-linecap="round" stroke-linejoin="round"/>
<path d="M9.99999 13.3333C10.9205 13.3333 11.6667 12.5871 11.6667 11.6667C11.6667 10.7462 10.9205 10 9.99999 10C9.07952 10 8.33333 10.7462 8.33333 11.6667C8.33333 12.5871 9.07952 13.3333 9.99999 13.3333Z" stroke="#5F647E" stroke-width="1.5" stroke-linecap="round" stroke-linejoin="round"/>
<path d="M11.6667 3.33301V6.66634H6.66667V3.33301" stroke="#5F647E" stroke-width="1.5" stroke-linecap="round" stroke-linejoin="round"/>
</g>
<defs>
<clipPath id="clip0_1276_23950">
<rect width="20" height="20" fill="white"/>
</clipPath>
</defs>
</svg>
