<svg width="18" height="18" viewBox="0 0 18 18" fill="none" xmlns="http://www.w3.org/2000/svg">
<path d="M15.8251 0.658203H2.17511C1.33716 0.658203 0.658447 1.33691 0.658447 2.17487V15.8249C0.658447 16.6628 1.33716 17.3415 2.17511 17.3415H15.8251C16.6631 17.3415 17.3418 16.6628 17.3418 15.8249V2.17487C17.3418 1.33691 16.6623 0.658203 15.8251 0.658203ZM14.0863 6.50268L8.35326 12.2357C8.21069 12.3782 8.01807 12.4579 7.81711 12.4579C7.61616 12.4579 7.42278 12.3782 7.28097 12.2357L4.66245 9.61715C4.36594 9.32065 4.36594 8.84138 4.66245 8.54487C4.95896 8.24836 5.43822 8.24836 5.73473 8.54487L7.81711 10.6273L13.014 5.4304C13.3105 5.13389 13.7897 5.13389 14.0863 5.4304C14.3828 5.7269 14.3828 6.20617 14.0863 6.50268Z" fill="#4147D5"/>
</svg>
