<svg width="20" height="21" viewBox="0 0 20 21" fill="none" xmlns="http://www.w3.org/2000/svg">
<g clip-path="url(#clip0_1193_16381)">
<path d="M12.5878 3.8335V6.64051C12.5878 6.82663 12.6617 7.00512 12.7933 7.13673C12.9249 7.26833 13.1034 7.34227 13.2895 7.34227H16.0965" stroke="#5F647E" stroke-width="1.5" stroke-linecap="round" stroke-linejoin="round"/>
<path d="M6.27195 10.851V5.237C6.27195 4.86477 6.41982 4.50778 6.68303 4.24457C6.94624 3.98137 7.30323 3.8335 7.67546 3.8335H12.5877L16.0965 7.34227V15.0616C16.0965 15.4338 15.9486 15.7908 15.6854 16.054C15.4222 16.3172 15.0652 16.4651 14.693 16.4651H10.8334M4.16669 15.0616H9.07897M6.9737 12.9563L9.07897 15.0616L6.9737 17.1668" stroke="#5F647E" stroke-width="1.5" stroke-linecap="round" stroke-linejoin="round"/>
</g>
<defs>
<clipPath id="clip0_1193_16381">
<rect width="20" height="20" fill="white" transform="translate(0 0.5)"/>
</clipPath>
</defs>
</svg>
