<svg width="20" height="20" viewBox="0 0 20 20" fill="none" xmlns="http://www.w3.org/2000/svg">
<g clip-path="url(#clip0_1185_16593)">
<path d="M4.5833 4.1665H15.4166C15.5366 4.20859 15.6454 4.2776 15.7347 4.36822C15.8239 4.45885 15.8912 4.5687 15.9314 4.68936C15.9716 4.81001 15.9837 4.93827 15.9667 5.06431C15.9497 5.19035 15.9041 5.31082 15.8333 5.4165L11.6666 9.99984V15.8332L8.3333 13.3332V9.99984L4.16663 5.4165C4.09588 5.31082 4.05025 5.19035 4.03324 5.06431C4.01623 4.93827 4.0283 4.81001 4.06852 4.68936C4.10874 4.5687 4.17604 4.45885 4.26527 4.36822C4.3545 4.2776 4.46329 4.20859 4.5833 4.1665Z" stroke="#5F647E" stroke-width="1.66667" stroke-linecap="round" stroke-linejoin="round"/>
</g>
<defs>
<clipPath id="clip0_1185_16593">
<rect width="20" height="20" fill="white"/>
</clipPath>
</defs>
</svg>
