<svg width="118" height="140" viewBox="0 0 118 140" fill="none" xmlns="http://www.w3.org/2000/svg">
<g opacity="0.6" clip-path="url(#clip0_1276_19754)">
<path d="M57.6019 119.617C25.7893 119.617 4.57764e-05 94.15 4.57764e-05 62.7346C4.57764e-05 31.3193 25.7893 5.85205 57.6019 5.85205C89.4145 5.85205 115.204 31.3193 115.204 62.7346C115.204 94.15 89.4145 119.617 57.6019 119.617Z" fill="#D6D9E7"/>
<path d="M114.031 138.395C104.626 138.009 95.2213 137.808 85.8162 137.686C81.1136 137.614 76.4111 137.585 71.7085 137.544C67.0059 137.536 62.3044 137.5 57.6018 137.516C48.1967 137.534 38.7916 137.582 29.3864 137.723C19.982 137.847 10.5772 138.072 1.17204 138.4C1.0795 138.405 0.992386 138.444 0.928627 138.511C0.864868 138.577 0.829338 138.665 0.829338 138.757C0.829338 138.848 0.864868 138.936 0.928627 139.003C0.992386 139.069 1.0795 139.109 1.17204 139.114C10.5772 139.445 19.982 139.67 29.3864 139.789C38.7916 139.932 48.1967 139.98 57.6018 139.998C62.3044 140.014 67.0059 139.977 71.7085 139.969C76.4111 139.929 81.1136 139.9 85.8162 139.828C95.2213 139.7 104.626 139.499 114.031 139.119C114.123 139.114 114.21 139.074 114.274 139.008C114.338 138.941 114.373 138.853 114.373 138.762C114.373 138.67 114.338 138.582 114.274 138.516C114.21 138.449 114.123 138.41 114.031 138.405V138.395Z" fill="#050D2D"/>
<path d="M114.031 138.395C104.626 138.009 95.2213 137.808 85.8162 137.686C81.1136 137.614 76.4111 137.585 71.7085 137.544C67.0059 137.536 62.3044 137.5 57.6018 137.516C48.1967 137.534 38.7916 137.582 29.3864 137.723C19.982 137.847 10.5772 138.072 1.17204 138.4C1.0795 138.405 0.992386 138.444 0.928627 138.511C0.864868 138.577 0.829338 138.665 0.829338 138.757C0.829338 138.848 0.864868 138.936 0.928627 139.003C0.992386 139.069 1.0795 139.109 1.17204 139.114C10.5772 139.445 19.982 139.67 29.3864 139.789C38.7916 139.932 48.1967 139.98 57.6018 139.998C62.3044 140.014 67.0059 139.977 71.7085 139.969C76.4111 139.929 81.1136 139.9 85.8162 139.828C95.2213 139.7 104.626 139.499 114.031 139.119C114.123 139.114 114.21 139.074 114.274 139.008C114.338 138.941 114.373 138.853 114.373 138.762C114.373 138.67 114.338 138.582 114.274 138.516C114.21 138.449 114.123 138.41 114.031 138.405V138.395Z" fill="black" fill-opacity="0.2"/>
<path d="M49.0673 89.0293C49.2021 89.0292 49.336 89.008 49.4641 88.9665C49.6217 88.9151 49.7675 88.8335 49.8931 88.7264C50.0187 88.6194 50.1218 88.4889 50.1964 88.3425C50.2709 88.1961 50.3156 88.0365 50.3277 87.8731C50.3398 87.7096 50.3192 87.5454 50.267 87.3899C47.4328 78.9204 53.8201 71.4199 53.8857 71.344C54.0967 71.092 54.1991 70.7685 54.1711 70.4427C54.1431 70.117 53.9869 69.8151 53.7359 69.6019C53.485 69.3887 53.1594 69.2812 52.829 69.3025C52.4987 69.3237 52.19 69.4721 51.9692 69.7157C51.6616 70.064 44.576 78.3411 47.8676 88.1726C47.9511 88.4217 48.1119 88.6385 48.3273 88.7923C48.5426 88.9461 48.8015 89.029 49.0673 89.0293Z" fill="#050D2D"/>
<path d="M49.0673 89.0293C49.2021 89.0292 49.336 89.008 49.4641 88.9665C49.6217 88.9151 49.7675 88.8335 49.8931 88.7264C50.0187 88.6194 50.1218 88.4889 50.1964 88.3425C50.2709 88.1961 50.3156 88.0365 50.3277 87.8731C50.3398 87.7096 50.3192 87.5454 50.267 87.3899C47.4328 78.9204 53.8201 71.4199 53.8857 71.344C54.0967 71.092 54.1991 70.7685 54.1711 70.4427C54.1431 70.117 53.9869 69.8151 53.7359 69.6019C53.485 69.3887 53.1594 69.2812 52.829 69.3025C52.4987 69.3237 52.19 69.4721 51.9692 69.7157C51.6616 70.064 44.576 78.3411 47.8676 88.1726C47.9511 88.4217 48.1119 88.6385 48.3273 88.7923C48.5426 88.9461 48.8015 89.029 49.0673 89.0293Z" fill="black" fill-opacity="0.2"/>
<path d="M53.2695 95.2109C53.4893 95.2106 53.7052 95.1538 53.8959 95.0461C54.0867 94.9383 54.2457 94.7833 54.3573 94.5963C54.4689 94.4093 54.5292 94.1969 54.5323 93.9799C54.5354 93.7629 54.4811 93.5488 54.3749 93.3588C54.3749 93.3467 52.4953 89.2071 60.9981 81.6186C70.9713 72.7217 67.5043 56.3771 67.3556 55.6855C67.2772 55.3695 67.0769 55.0963 66.7974 54.9239C66.518 54.7516 66.1814 54.6938 65.8595 54.7628C65.5375 54.8318 65.2555 55.0223 65.0736 55.2935C64.8917 55.5648 64.8242 55.8954 64.8854 56.2151C64.9193 56.3711 68.1862 71.8458 59.3082 79.7665C49.3073 88.6866 51.8442 93.9907 52.1651 94.5659C52.2743 94.7608 52.4342 94.9235 52.6284 95.0369C52.8226 95.1503 53.0439 95.2103 53.2695 95.2109Z" fill="#050D2D"/>
<path d="M53.2695 95.2109C53.4893 95.2106 53.7052 95.1538 53.8959 95.0461C54.0867 94.9383 54.2457 94.7833 54.3573 94.5963C54.4689 94.4093 54.5292 94.1969 54.5323 93.9799C54.5354 93.7629 54.4811 93.5488 54.3749 93.3588C54.3749 93.3467 52.4953 89.2071 60.9981 81.6186C70.9713 72.7217 67.5043 56.3771 67.3556 55.6855C67.2772 55.3695 67.0769 55.0963 66.7974 54.9239C66.518 54.7516 66.1814 54.6938 65.8595 54.7628C65.5375 54.8318 65.2555 55.0223 65.0736 55.2935C64.8917 55.5648 64.8242 55.8954 64.8854 56.2151C64.9193 56.3711 68.1862 71.8458 59.3082 79.7665C49.3073 88.6866 51.8442 93.9907 52.1651 94.5659C52.2743 94.7608 52.4342 94.9235 52.6284 95.0369C52.8226 95.1503 53.0439 95.2103 53.2695 95.2109Z" fill="black" fill-opacity="0.2"/>
<path d="M60.152 89.0292C60.4605 89.0288 60.7582 88.9171 60.9891 88.7152C61.2201 88.5132 61.3683 88.2349 61.4061 87.9326C62.0213 83.0113 59.508 77.3325 59.4014 77.0976C59.2654 76.7947 59.0131 76.5575 58.7001 76.4382C58.387 76.319 58.0388 76.3274 57.732 76.4617C57.4252 76.596 57.185 76.8451 57.0643 77.1542C56.9435 77.4634 56.9521 77.8073 57.088 78.1102C57.1116 78.1629 59.4219 83.4072 58.8958 87.6379C58.8756 87.8007 58.8881 87.9658 58.9325 88.1238C58.9769 88.2818 59.0524 88.4297 59.1546 88.5589C59.2569 88.6881 59.384 88.7961 59.5285 88.8768C59.6731 88.9575 59.8323 89.0093 59.9972 89.0292C60.0487 89.0322 60.1004 89.0322 60.152 89.0292Z" fill="#050D2D"/>
<path d="M60.152 89.0292C60.4605 89.0288 60.7582 88.9171 60.9891 88.7152C61.2201 88.5132 61.3683 88.2349 61.4061 87.9326C62.0213 83.0113 59.508 77.3325 59.4014 77.0976C59.2654 76.7947 59.0131 76.5575 58.7001 76.4382C58.387 76.319 58.0388 76.3274 57.732 76.4617C57.4252 76.596 57.185 76.8451 57.0643 77.1542C56.9435 77.4634 56.9521 77.8073 57.088 78.1102C57.1116 78.1629 59.4219 83.4072 58.8958 87.6379C58.8756 87.8007 58.8881 87.9658 58.9325 88.1238C58.9769 88.2818 59.0524 88.4297 59.1546 88.5589C59.2569 88.6881 59.384 88.7961 59.5285 88.8768C59.6731 88.9575 59.8323 89.0093 59.9972 89.0292C60.0487 89.0322 60.1004 89.0322 60.152 89.0292Z" fill="black" fill-opacity="0.2"/>
<path d="M65.2617 89.0291C65.3527 89.0291 65.4434 89.0196 65.5324 89.0007C65.8599 88.9301 66.1457 88.734 66.3268 88.4555C66.5079 88.1769 66.5696 87.8387 66.4983 87.5152C65.518 83.0779 68.017 77.8022 68.0426 77.7495C68.1191 77.6008 68.1646 77.4385 68.1765 77.2722C68.1885 77.1058 68.1665 76.9387 68.1119 76.7809C68.0574 76.6231 67.9714 76.4776 67.859 76.3531C67.7466 76.2286 67.61 76.1277 67.4575 76.0561C67.3049 75.9846 67.1394 75.944 66.9706 75.9367C66.8019 75.9294 66.6334 75.9556 66.4751 76.0137C66.3167 76.0718 66.1718 76.1606 66.0488 76.2749C65.9258 76.3892 65.8273 76.5267 65.759 76.6792C65.64 76.9263 62.8663 82.7863 64.0281 88.0468C64.0896 88.3248 64.2454 88.5738 64.4697 88.7524C64.6941 88.9311 64.9735 89.0287 65.2617 89.0291Z" fill="#050D2D"/>
<path d="M65.2617 89.0291C65.3527 89.0291 65.4434 89.0196 65.5324 89.0007C65.8599 88.9301 66.1457 88.734 66.3268 88.4555C66.5079 88.1769 66.5696 87.8387 66.4983 87.5152C65.518 83.0779 68.017 77.8022 68.0426 77.7495C68.1191 77.6008 68.1646 77.4385 68.1765 77.2722C68.1885 77.1058 68.1665 76.9387 68.1119 76.7809C68.0574 76.6231 67.9714 76.4776 67.859 76.3531C67.7466 76.2286 67.61 76.1277 67.4575 76.0561C67.3049 75.9846 67.1394 75.944 66.9706 75.9367C66.8019 75.9294 66.6334 75.9556 66.4751 76.0137C66.3167 76.0718 66.1718 76.1606 66.0488 76.2749C65.9258 76.3892 65.8273 76.5267 65.759 76.6792C65.64 76.9263 62.8663 82.7863 64.0281 88.0468C64.0896 88.3248 64.2454 88.5738 64.4697 88.7524C64.6941 88.9311 64.9735 89.0287 65.2617 89.0291Z" fill="black" fill-opacity="0.2"/>
<path d="M35.5974 131.195C30.3063 117.154 30.7779 102.561 37.7508 87.3493C38.1099 86.5609 38.6916 85.8915 39.4262 85.4213C40.1608 84.9511 41.0171 84.7001 41.8925 84.6982H78.4999C79.3754 84.7 80.2319 84.951 80.9667 85.4212C81.7014 85.8914 82.2833 86.5608 82.6426 87.3493C89.5754 102.486 90.0789 117.01 84.8708 130.987C84.0333 133.258 82.5097 135.221 80.506 136.61C78.5022 137.998 76.115 138.746 73.6671 138.752H46.7242C41.7858 138.751 37.3181 135.762 35.5974 131.195Z" fill="#D6D9E7"/>
<path d="M86.3207 100.158L87.4558 105.066V108.664C87.4558 108.664 81.8734 111.542 75.2092 108.792C75.2092 108.792 64.5449 105.888 59.2414 109.131C59.2414 109.131 49.2426 111.038 44.4098 107.908C44.4098 107.908 32.879 107.468 31.3573 109.667L33.9864 99.6292C33.9864 99.6292 40.261 96.1185 47.6101 99.9411C47.6101 99.9411 51.9005 102.7 60.3509 99.9411C60.3509 99.9411 66.484 95.5119 75.077 100.144C75.077 100.145 80.7681 102.626 86.3207 100.158Z" fill="white"/>
<g opacity="0.55">
<path d="M32.4781 101.701C32.5621 101.929 32.7277 102.118 32.9436 102.234C33.0626 101.596 33.1948 100.953 33.3384 100.31C33.2522 100.338 33.1743 100.366 33.0913 100.395C32.8346 100.488 32.6259 100.678 32.5109 100.922C32.396 101.167 32.3841 101.447 32.4781 101.701Z" fill="white"/>
<path d="M33.161 102.677L33.2348 102.282C33.3548 101.64 33.4871 100.997 33.6276 100.368L33.7404 99.8618L32.9928 100.111C32.6627 100.231 32.394 100.475 32.2453 100.79C32.0966 101.105 32.08 101.465 32.1991 101.792C32.3091 102.085 32.5234 102.329 32.8021 102.478L33.161 102.677ZM32.918 100.844C32.864 101.099 32.8117 101.353 32.7611 101.609C32.7611 101.609 32.7611 101.599 32.7559 101.595C32.7097 101.468 32.7004 101.33 32.729 101.197C32.7576 101.064 32.823 100.942 32.918 100.844Z" fill="#050D2D"/>
<path d="M33.161 102.677L33.2348 102.282C33.3548 101.64 33.4871 100.997 33.6276 100.368L33.7404 99.8618L32.9928 100.111C32.6627 100.231 32.394 100.475 32.2453 100.79C32.0966 101.105 32.08 101.465 32.1991 101.792C32.3091 102.085 32.5234 102.329 32.8021 102.478L33.161 102.677ZM32.918 100.844C32.864 101.099 32.8117 101.353 32.7611 101.609C32.7611 101.609 32.7611 101.599 32.7559 101.595C32.7097 101.468 32.7004 101.33 32.729 101.197C32.7576 101.064 32.823 100.942 32.918 100.844Z" fill="black" fill-opacity="0.2"/>
</g>
<g opacity="0.55">
<path d="M44.4098 107.908C44.4187 108.093 44.4289 108.279 44.4406 108.464C44.4675 108.903 44.6255 109.324 44.8945 109.673C45.1635 110.023 45.5315 110.286 45.952 110.43C46.273 110.538 46.5847 110.653 46.9016 110.767C48.6448 111.398 50.4352 112.048 53.977 112.048C57.5188 112.048 59.3173 111.398 61.0523 110.767C62.693 110.17 64.2445 109.609 67.4274 109.609C70.6103 109.609 72.1546 110.17 73.7983 110.767C75.5364 111.398 77.3319 112.048 80.8737 112.048C81.7362 112.052 82.5983 112.007 83.4557 111.914C83.6534 111.892 83.8538 111.912 84.0429 111.973C84.2321 112.035 84.4056 112.135 84.5516 112.269C84.6977 112.403 84.8128 112.566 84.8891 112.747C84.9654 112.929 85.0011 113.124 84.9938 113.321C84.7969 119.128 83.6269 124.846 81.5269 130.479C80.6935 132.752 79.1712 134.718 77.1671 136.107C75.1629 137.497 72.7741 138.243 70.3252 138.245H74.1675C74.3654 138.245 74.5592 138.245 74.7571 138.229C74.8801 138.229 75.0032 138.217 75.1272 138.205C77.404 138.018 79.5788 137.191 81.3946 135.822C83.2103 134.452 84.591 132.598 85.3732 130.479C87.8147 123.923 89.0012 117.25 88.8597 110.45C88.8473 109.767 88.8186 109.083 88.7776 108.401C88.6438 106.198 88.3743 104.006 87.9706 101.837C87.8547 101.202 87.7276 100.572 87.5922 99.9371C86.6406 95.6018 85.1483 91.2182 83.1153 86.7863C82.7559 86.0089 82.177 85.3504 81.4479 84.8901C80.7189 84.4297 79.8707 84.1869 79.0054 84.191H75.159C76.0349 84.192 76.8917 84.4429 77.6266 84.9133C78.3616 85.3838 78.9432 86.0539 79.3017 86.843C81.4729 91.58 83.0199 96.258 83.9428 100.877C82.9292 101.032 81.9045 101.105 80.8788 101.097C77.7 101.097 76.1516 100.536 74.5089 99.9371C72.7657 99.3073 70.9753 98.6561 67.4335 98.6561C63.8917 98.6561 62.088 99.3073 60.3499 99.9371C58.7093 100.536 57.1588 101.097 53.98 101.097C50.8012 101.097 49.2518 100.536 47.6091 99.9371C46.8349 99.644 46.046 99.3901 45.2455 99.1766H45.2404V99.1969C45.1206 99.7215 45.1989 100.271 45.4606 100.743C45.7223 101.214 46.1494 101.575 46.6616 101.758L46.9057 101.846C48.6489 102.476 50.4393 103.127 53.9811 103.127C57.5229 103.127 59.3214 102.476 61.0564 101.846C62.6971 101.248 64.2486 100.686 67.4315 100.686C70.6144 100.686 72.1587 101.248 73.8024 101.846C75.5405 102.476 77.336 103.127 80.8778 103.127C81.6725 103.127 82.381 103.094 83.0199 103.038C83.3749 103.006 83.7285 103.111 84.007 103.331C84.2855 103.55 84.4675 103.868 84.5149 104.216C84.7631 105.993 84.9209 107.78 84.9877 109.572C83.9294 109.832 82.661 110.008 80.8778 110.008C77.699 110.008 76.1506 109.447 74.5079 108.849C72.7647 108.218 70.9743 107.568 67.4325 107.568C63.8907 107.568 62.087 108.218 60.3489 108.849C58.7083 109.447 57.1578 110.008 53.979 110.008C50.8002 110.008 49.2508 109.447 47.6081 108.849C46.6545 108.51 45.6824 108.157 44.4098 107.908Z" fill="white"/>
</g>
<path d="M46.7201 139.999H73.663C79.1613 139.999 84.1407 136.55 86.0531 131.417C91.4581 116.912 90.6962 101.912 83.79 86.8339C83.3296 85.8274 82.5856 84.973 81.6468 84.3727C80.708 83.7725 79.6142 83.4517 78.4958 83.4487H41.8883C40.7701 83.4516 39.6763 83.7724 38.7377 84.3727C37.799 84.9729 37.0552 85.8274 36.5951 86.8339C29.6551 101.986 28.9199 117.057 34.411 131.63L35.5964 131.196L34.411 131.63C36.2988 136.636 41.2444 139.999 46.7201 139.999ZM78.4958 85.9458C79.128 85.9482 79.7463 86.1302 80.2766 86.4701C80.807 86.81 81.2272 87.2935 81.4869 87.8627C88.1101 102.323 88.8474 116.687 83.6813 130.555C82.1329 134.706 78.1061 137.502 73.663 137.502H46.7201C42.2954 137.502 38.3014 134.793 36.7817 130.76C31.5316 116.826 32.2443 102.393 38.8993 87.8627C39.1588 87.2935 39.5788 86.8102 40.109 86.4703C40.6392 86.1304 41.2572 85.9483 41.8894 85.9458H78.4958Z" fill="#050D2D"/>
<path d="M46.7201 139.999H73.663C79.1613 139.999 84.1407 136.55 86.0531 131.417C91.4581 116.912 90.6962 101.912 83.79 86.8339C83.3296 85.8274 82.5856 84.973 81.6468 84.3727C80.708 83.7725 79.6142 83.4517 78.4958 83.4487H41.8883C40.7701 83.4516 39.6763 83.7724 38.7377 84.3727C37.799 84.9729 37.0552 85.8274 36.5951 86.8339C29.6551 101.986 28.9199 117.057 34.411 131.63L35.5964 131.196L34.411 131.63C36.2988 136.636 41.2444 139.999 46.7201 139.999ZM78.4958 85.9458C79.128 85.9482 79.7463 86.1302 80.2766 86.4701C80.807 86.81 81.2272 87.2935 81.4869 87.8627C88.1101 102.323 88.8474 116.687 83.6813 130.555C82.1329 134.706 78.1061 137.502 73.663 137.502H46.7201C42.2954 137.502 38.3014 134.793 36.7817 130.76C31.5316 116.826 32.2443 102.393 38.8993 87.8627C39.1588 87.2935 39.5788 86.8102 40.109 86.4703C40.6392 86.1304 41.2572 85.9483 41.8894 85.9458H78.4958Z" fill="black" fill-opacity="0.2"/>
<path d="M53.4674 101.989C56.9907 101.989 58.777 101.342 60.5038 100.715C62.1568 100.116 63.7174 99.5499 66.9219 99.5499C70.1263 99.5499 71.6839 100.116 73.3348 100.715C75.0627 101.342 76.8489 101.989 80.3713 101.989C83.8936 101.989 85.6942 101.338 87.2795 100.764C87.5043 100.683 87.6871 100.516 87.7878 100.302C87.8884 100.087 87.8987 99.8423 87.8163 99.6203C87.7339 99.3983 87.5656 99.2178 87.3484 99.1184C87.1312 99.019 86.8829 99.0088 86.6581 99.0902C85.1425 99.639 83.5757 100.204 80.3713 100.204C77.1668 100.204 75.6102 99.638 73.9583 99.0385C72.2305 98.4117 70.4452 97.7637 66.9219 97.7637C63.3985 97.7637 61.6092 98.4117 59.8813 99.0385C58.2294 99.638 56.6687 100.204 53.4674 100.204C50.266 100.204 48.7063 99.638 47.0544 99.0385C45.3266 98.4117 43.5393 97.7637 40.0139 97.7637C36.4885 97.7637 34.6355 98.4391 33.1354 98.9788C32.9174 99.0651 32.742 99.2318 32.6464 99.4435C32.5508 99.6553 32.5424 99.8956 32.6231 100.113C32.7037 100.331 32.8671 100.509 33.0785 100.61C33.29 100.711 33.5329 100.727 33.7557 100.654C35.1913 100.133 36.8228 99.5448 40.0108 99.5448C43.1988 99.5448 44.7759 100.111 46.4289 100.71C48.1598 101.342 49.945 101.989 53.4674 101.989Z" fill="#050D2D"/>
<path d="M53.4674 101.989C56.9907 101.989 58.777 101.342 60.5038 100.715C62.1568 100.116 63.7174 99.5499 66.9219 99.5499C70.1263 99.5499 71.6839 100.116 73.3348 100.715C75.0627 101.342 76.8489 101.989 80.3713 101.989C83.8936 101.989 85.6942 101.338 87.2795 100.764C87.5043 100.683 87.6871 100.516 87.7878 100.302C87.8884 100.087 87.8987 99.8423 87.8163 99.6203C87.7339 99.3983 87.5656 99.2178 87.3484 99.1184C87.1312 99.019 86.8829 99.0088 86.6581 99.0902C85.1425 99.639 83.5757 100.204 80.3713 100.204C77.1668 100.204 75.6102 99.638 73.9583 99.0385C72.2305 98.4117 70.4452 97.7637 66.9219 97.7637C63.3985 97.7637 61.6092 98.4117 59.8813 99.0385C58.2294 99.638 56.6687 100.204 53.4674 100.204C50.266 100.204 48.7063 99.638 47.0544 99.0385C45.3266 98.4117 43.5393 97.7637 40.0139 97.7637C36.4885 97.7637 34.6355 98.4391 33.1354 98.9788C32.9174 99.0651 32.742 99.2318 32.6464 99.4435C32.5508 99.6553 32.5424 99.8956 32.6231 100.113C32.7037 100.331 32.8671 100.509 33.0785 100.61C33.29 100.711 33.5329 100.727 33.7557 100.654C35.1913 100.133 36.8228 99.5448 40.0108 99.5448C43.1988 99.5448 44.7759 100.111 46.4289 100.71C48.1598 101.342 49.945 101.989 53.4674 101.989Z" fill="black" fill-opacity="0.2"/>
<path d="M53.4674 110.905C56.9907 110.905 58.777 110.257 60.5038 109.63C62.1568 109.03 63.7175 108.464 66.9219 108.464C70.1263 108.464 71.684 109.03 73.3349 109.63C75.0627 110.257 76.849 110.905 80.3713 110.905C83.8936 110.905 85.6778 110.258 87.4046 109.632C87.7707 109.499 88.1368 109.367 88.5213 109.24C88.6338 109.203 88.7379 109.145 88.8276 109.068C88.9172 108.992 88.9908 108.899 89.0439 108.794C89.0971 108.689 89.1289 108.575 89.1375 108.459C89.1461 108.342 89.1313 108.225 89.094 108.113C89.0567 108.002 88.9976 107.9 88.9201 107.811C88.8426 107.723 88.7482 107.65 88.6423 107.597C88.5363 107.545 88.421 107.514 88.3027 107.505C88.1845 107.497 88.0658 107.511 87.9533 107.548C87.5503 107.681 87.1657 107.819 86.7822 107.958C85.1303 108.557 83.5706 109.122 80.3713 109.122C77.172 109.122 75.6103 108.556 73.9583 107.956C72.2305 107.329 70.4453 106.681 66.9219 106.681C63.3986 106.681 61.6092 107.329 59.8814 107.956C58.2295 108.556 56.6688 109.122 53.4674 109.122C50.2661 109.122 48.7064 108.556 47.0544 107.956C45.3266 107.329 43.5393 106.681 40.0139 106.681C36.4885 106.681 34.7053 107.329 32.9785 107.955C32.5991 108.093 32.2197 108.23 31.8208 108.36C31.5935 108.434 31.4052 108.594 31.2974 108.805C31.1896 109.016 31.1712 109.261 31.2461 109.486C31.321 109.71 31.4832 109.896 31.6969 110.002C31.9107 110.109 32.1585 110.127 32.3858 110.053C32.8052 109.916 33.2062 109.773 33.601 109.628C35.2529 109.029 36.8126 108.463 40.0139 108.463C43.2153 108.463 44.7791 109.029 46.432 109.629C48.1599 110.257 49.9451 110.905 53.4674 110.905Z" fill="#050D2D"/>
<path d="M53.4674 110.905C56.9907 110.905 58.777 110.257 60.5038 109.63C62.1568 109.03 63.7175 108.464 66.9219 108.464C70.1263 108.464 71.684 109.03 73.3349 109.63C75.0627 110.257 76.849 110.905 80.3713 110.905C83.8936 110.905 85.6778 110.258 87.4046 109.632C87.7707 109.499 88.1368 109.367 88.5213 109.24C88.6338 109.203 88.7379 109.145 88.8276 109.068C88.9172 108.992 88.9908 108.899 89.0439 108.794C89.0971 108.689 89.1289 108.575 89.1375 108.459C89.1461 108.342 89.1313 108.225 89.094 108.113C89.0567 108.002 88.9976 107.9 88.9201 107.811C88.8426 107.723 88.7482 107.65 88.6423 107.597C88.5363 107.545 88.421 107.514 88.3027 107.505C88.1845 107.497 88.0658 107.511 87.9533 107.548C87.5503 107.681 87.1657 107.819 86.7822 107.958C85.1303 108.557 83.5706 109.122 80.3713 109.122C77.172 109.122 75.6103 108.556 73.9583 107.956C72.2305 107.329 70.4453 106.681 66.9219 106.681C63.3986 106.681 61.6092 107.329 59.8814 107.956C58.2295 108.556 56.6688 109.122 53.4674 109.122C50.2661 109.122 48.7064 108.556 47.0544 107.956C45.3266 107.329 43.5393 106.681 40.0139 106.681C36.4885 106.681 34.7053 107.329 32.9785 107.955C32.5991 108.093 32.2197 108.23 31.8208 108.36C31.5935 108.434 31.4052 108.594 31.2974 108.805C31.1896 109.016 31.1712 109.261 31.2461 109.486C31.321 109.71 31.4832 109.896 31.6969 110.002C31.9107 110.109 32.1585 110.127 32.3858 110.053C32.8052 109.916 33.2062 109.773 33.601 109.628C35.2529 109.029 36.8126 108.463 40.0139 108.463C43.2153 108.463 44.7791 109.029 46.432 109.629C48.1599 110.257 49.9451 110.905 53.4674 110.905Z" fill="black" fill-opacity="0.2"/>
<path d="M6.21609 35.3212C6.43066 35.918 6.69085 36.4979 6.99439 37.0558C7.10998 37.2639 7.27388 37.4419 7.47261 37.5753C7.67134 37.7088 7.89924 37.7938 8.13768 37.8234C8.37611 37.8531 8.61828 37.8265 8.8443 37.7459C9.07032 37.6652 9.27377 37.5329 9.43797 37.3596C10.1926 36.5743 11.2277 36.1105 12.3231 36.0671C13.4185 36.0236 14.4879 36.4038 15.3039 37.1268C16.1199 37.8498 16.6182 38.8586 16.6928 39.9387C16.7673 41.0188 16.4123 42.085 15.7033 42.9107C15.6133 43.0182 15.55 43.1449 15.5183 43.2808C15.4866 43.4167 15.4875 43.558 15.5209 43.6934C15.5542 43.8289 15.6192 43.9548 15.7104 44.0612C15.8017 44.1676 15.9169 44.2514 16.0468 44.3061L16.0581 44.3122C22.9417 46.5136 27.9662 51.9038 31.992 59.0052C32.0679 59.1338 32.1397 59.2624 32.2115 59.391C42.0852 74.5002 49.5933 79.1917 55.5643 77.1421C55.6905 77.1006 55.8125 77.052 55.9345 77.0034C58.415 76.0131 60.2341 73.8431 60.9591 71.2801C64.0753 60.1839 54.7656 42.2414 33.1959 29.9574C24.4429 25.2295 17.3614 23.2944 12.3594 24.8943C12.184 24.948 12.0087 25.0097 11.8374 25.0735C9.74251 25.8664 8.03724 27.3225 6.75649 29.5017C6.24281 30.3744 5.92833 31.3473 5.83499 32.3525C5.74165 33.3576 5.8717 34.3708 6.21609 35.3212Z" fill="#5F647E"/>
<g opacity="0.6">
<path d="M8.63293 28.0261C13.6657 25.0895 21.463 26.8626 31.4136 32.2386C52.9833 44.5226 62.2931 62.4682 59.1727 73.5614C58.7998 74.9047 58.1152 76.1438 57.1732 77.1805C59.1799 76.0666 60.6421 74.1304 61.2666 71.9007C64.388 60.8075 55.0772 42.8619 33.5075 30.5779C22.0475 24.3888 13.4462 22.9833 8.63293 28.0261Z" fill="white"/>
</g>
<path d="M53.1546 79.469C54.2228 79.4688 55.2833 79.2904 56.2913 78.9414C59.2784 77.9166 61.5937 75.4084 62.4848 72.2338C64.186 66.1896 62.4941 58.6587 57.7218 51.0297C52.5721 42.7951 44.417 35.3494 34.1372 29.4965C19.9474 21.832 10.4808 21.837 5.97303 29.4965C5.36521 30.5261 4.99311 31.6746 4.88292 32.8614C4.77274 34.0482 4.92713 35.2445 5.33522 36.366C5.57256 37.0213 5.85874 37.6583 6.19143 38.2718C6.39676 38.655 6.69242 38.9839 7.05345 39.2306C7.41449 39.4773 7.83031 39.6347 8.26585 39.6894C8.70478 39.7469 9.15125 39.7006 9.56855 39.5545C9.98586 39.4084 10.3621 39.1666 10.6664 38.849C10.9308 38.5715 11.248 38.3481 11.5999 38.1918C11.9518 38.0354 12.3315 37.949 12.7172 37.9376C14.1261 37.9012 15.4182 38.8864 15.6971 40.2585C15.7876 40.6914 15.7767 41.1391 15.6655 41.5672C15.5543 41.9954 15.3455 42.3929 15.0552 42.7293C14.8355 42.982 14.6797 43.2826 14.6008 43.6063C14.5218 43.9301 14.5218 44.2678 14.6009 44.5915C14.6786 44.9194 14.8328 45.2249 15.0512 45.4835C15.2697 45.7421 15.5463 45.9468 15.8591 46.0811C15.895 46.0962 15.9452 46.1155 15.9831 46.1276C22.0044 48.0516 27.0577 52.7937 31.4188 60.6182C31.4331 60.6435 31.4475 60.6678 31.4639 60.6921C39.6898 73.2789 46.8257 79.468 53.1546 79.469ZM16.5318 26.2055C20.7144 26.2055 26.1481 28.0282 32.9015 31.6736C54.3738 43.9019 62.9217 61.3574 60.0495 71.5706C59.3799 73.9563 57.6643 75.8317 55.4617 76.5871C49.7194 78.5597 42.3682 72.7665 33.6101 59.3726C29.0521 51.217 23.7128 46.16 17.306 43.9313C17.7304 43.3317 18.0266 42.6529 18.1764 41.9365C18.3263 41.22 18.3267 40.481 18.1776 39.7644C17.6566 37.2085 15.2684 35.3554 12.6311 35.4405C11.19 35.4851 9.82563 36.0922 8.83702 37.1285C8.80828 37.1595 8.77235 37.183 8.73232 37.1971C8.6923 37.2112 8.64939 37.2155 8.60732 37.2096C8.56937 37.2058 8.53297 37.1927 8.50145 37.1714C8.46993 37.1502 8.44428 37.1215 8.42685 37.088C8.15355 36.5842 7.91877 36.0609 7.72445 35.5225C7.44044 34.7435 7.33281 33.9124 7.40917 33.0879C7.48553 32.2633 7.74399 31.4653 8.16639 30.7501C9.94344 27.7203 12.7182 26.2044 16.5318 26.2044V26.2055Z" fill="#050D2D"/>
<path d="M53.1546 79.469C54.2228 79.4688 55.2833 79.2904 56.2913 78.9414C59.2784 77.9166 61.5937 75.4084 62.4848 72.2338C64.186 66.1896 62.4941 58.6587 57.7218 51.0297C52.5721 42.7951 44.417 35.3494 34.1372 29.4965C19.9474 21.832 10.4808 21.837 5.97303 29.4965C5.36521 30.5261 4.99311 31.6746 4.88292 32.8614C4.77274 34.0482 4.92713 35.2445 5.33522 36.366C5.57256 37.0213 5.85874 37.6583 6.19143 38.2718C6.39676 38.655 6.69242 38.9839 7.05345 39.2306C7.41449 39.4773 7.83031 39.6347 8.26585 39.6894C8.70478 39.7469 9.15125 39.7006 9.56855 39.5545C9.98586 39.4084 10.3621 39.1666 10.6664 38.849C10.9308 38.5715 11.248 38.3481 11.5999 38.1918C11.9518 38.0354 12.3315 37.949 12.7172 37.9376C14.1261 37.9012 15.4182 38.8864 15.6971 40.2585C15.7876 40.6914 15.7767 41.1391 15.6655 41.5672C15.5543 41.9954 15.3455 42.3929 15.0552 42.7293C14.8355 42.982 14.6797 43.2826 14.6008 43.6063C14.5218 43.9301 14.5218 44.2678 14.6009 44.5915C14.6786 44.9194 14.8328 45.2249 15.0512 45.4835C15.2697 45.7421 15.5463 45.9468 15.8591 46.0811C15.895 46.0962 15.9452 46.1155 15.9831 46.1276C22.0044 48.0516 27.0577 52.7937 31.4188 60.6182C31.4331 60.6435 31.4475 60.6678 31.4639 60.6921C39.6898 73.2789 46.8257 79.468 53.1546 79.469ZM16.5318 26.2055C20.7144 26.2055 26.1481 28.0282 32.9015 31.6736C54.3738 43.9019 62.9217 61.3574 60.0495 71.5706C59.3799 73.9563 57.6643 75.8317 55.4617 76.5871C49.7194 78.5597 42.3682 72.7665 33.6101 59.3726C29.0521 51.217 23.7128 46.16 17.306 43.9313C17.7304 43.3317 18.0266 42.6529 18.1764 41.9365C18.3263 41.22 18.3267 40.481 18.1776 39.7644C17.6566 37.2085 15.2684 35.3554 12.6311 35.4405C11.19 35.4851 9.82563 36.0922 8.83702 37.1285C8.80828 37.1595 8.77235 37.183 8.73232 37.1971C8.6923 37.2112 8.64939 37.2155 8.60732 37.2096C8.56937 37.2058 8.53297 37.1927 8.50145 37.1714C8.46993 37.1502 8.44428 37.1215 8.42685 37.088C8.15355 36.5842 7.91877 36.0609 7.72445 35.5225C7.44044 34.7435 7.33281 33.9124 7.40917 33.0879C7.48553 32.2633 7.74399 31.4653 8.16639 30.7501C9.94344 27.7203 12.7182 26.2044 16.5318 26.2044V26.2055Z" fill="black" fill-opacity="0.2"/>
<path d="M20.2182 32.6242C24.5004 35.2013 28.6492 37.8746 32.5386 40.9206C36.413 43.9789 39.9655 47.4148 43.1425 51.1763C46.3213 54.9311 49.1688 58.9603 51.5509 63.2487C52.7452 65.3894 53.8345 67.5834 54.8189 69.8307C55.0845 70.3846 55.2916 70.9598 55.5172 71.5289L56.1858 73.2392C56.6042 74.3885 56.9733 75.555 57.3701 76.7124L57.3906 76.7712C57.4648 76.9957 57.6262 77.1819 57.8393 77.2889C58.0525 77.396 58.3 77.415 58.5273 77.3418C58.7547 77.2686 58.9433 77.1092 59.0516 76.8987C59.16 76.6882 59.1793 76.4438 59.1051 76.2193C58.7257 75.0193 58.3874 73.8052 57.9772 72.6154L57.3148 70.8453C57.0912 70.257 56.8851 69.6606 56.6206 69.0884C55.6542 66.7615 54.5549 64.4906 53.328 62.2867C50.88 57.8752 47.9825 53.7219 44.6806 49.8913C41.3747 46.0682 37.6872 42.5837 33.6737 39.4907C29.6746 36.3972 25.2848 33.7401 20.5289 31.9822C20.4444 31.9517 20.3515 31.9533 20.2681 31.9867C20.1847 32.02 20.1168 32.0827 20.0776 32.1627C20.0384 32.2426 20.0307 32.3341 20.0559 32.4194C20.0811 32.5047 20.1375 32.5777 20.2141 32.6242H20.2182Z" fill="#050D2D"/>
<path d="M20.2182 32.6242C24.5004 35.2013 28.6492 37.8746 32.5386 40.9206C36.413 43.9789 39.9655 47.4148 43.1425 51.1763C46.3213 54.9311 49.1688 58.9603 51.5509 63.2487C52.7452 65.3894 53.8345 67.5834 54.8189 69.8307C55.0845 70.3846 55.2916 70.9598 55.5172 71.5289L56.1858 73.2392C56.6042 74.3885 56.9733 75.555 57.3701 76.7124L57.3906 76.7712C57.4648 76.9957 57.6262 77.1819 57.8393 77.2889C58.0525 77.396 58.3 77.415 58.5273 77.3418C58.7547 77.2686 58.9433 77.1092 59.0516 76.8987C59.16 76.6882 59.1793 76.4438 59.1051 76.2193C58.7257 75.0193 58.3874 73.8052 57.9772 72.6154L57.3148 70.8453C57.0912 70.257 56.8851 69.6606 56.6206 69.0884C55.6542 66.7615 54.5549 64.4906 53.328 62.2867C50.88 57.8752 47.9825 53.7219 44.6806 49.8913C41.3747 46.0682 37.6872 42.5837 33.6737 39.4907C29.6746 36.3972 25.2848 33.7401 20.5289 31.9822C20.4444 31.9517 20.3515 31.9533 20.2681 31.9867C20.1847 32.02 20.1168 32.0827 20.0776 32.1627C20.0384 32.2426 20.0307 32.3341 20.0559 32.4194C20.0811 32.5047 20.1375 32.5777 20.2141 32.6242H20.2182Z" fill="black" fill-opacity="0.2"/>
<path d="M39.1883 44.2723C38.2126 43.8285 37.2032 43.4605 36.1695 43.1716C35.1516 42.8843 34.1144 42.6687 33.0656 42.5266C32.0187 42.3798 30.9608 42.325 29.9042 42.3625C28.848 42.3808 27.8 42.565 26.7756 42.7878C26.6844 42.8071 26.6043 42.8606 26.5521 42.937C26.4999 43.0135 26.4797 43.1069 26.4957 43.1977C26.5118 43.2885 26.5628 43.3696 26.6382 43.424C26.7135 43.4784 26.8072 43.5019 26.8997 43.4896H26.9233C27.9129 43.363 28.9044 43.2769 29.897 43.3468C30.8887 43.3983 31.8739 43.5362 32.841 43.7589C33.8077 43.9774 34.7575 44.263 35.6835 44.6136C36.5948 44.9552 37.4786 45.3648 38.327 45.8388L38.3567 45.856C38.5644 45.9747 38.8113 46.0071 39.0431 45.9461C39.2749 45.885 39.4727 45.7355 39.5929 45.5305C39.7131 45.3254 39.7459 45.0816 39.684 44.8527C39.6222 44.6238 39.4708 44.4285 39.2632 44.3098C39.2365 44.2956 39.2119 44.2855 39.1883 44.2723Z" fill="#050D2D"/>
<path d="M39.1883 44.2723C38.2126 43.8285 37.2032 43.4605 36.1695 43.1716C35.1516 42.8843 34.1144 42.6687 33.0656 42.5266C32.0187 42.3798 30.9608 42.325 29.9042 42.3625C28.848 42.3808 27.8 42.565 26.7756 42.7878C26.6844 42.8071 26.6043 42.8606 26.5521 42.937C26.4999 43.0135 26.4797 43.1069 26.4957 43.1977C26.5118 43.2885 26.5628 43.3696 26.6382 43.424C26.7135 43.4784 26.8072 43.5019 26.8997 43.4896H26.9233C27.9129 43.363 28.9044 43.2769 29.897 43.3468C30.8887 43.3983 31.8739 43.5362 32.841 43.7589C33.8077 43.9774 34.7575 44.263 35.6835 44.6136C36.5948 44.9552 37.4786 45.3648 38.327 45.8388L38.3567 45.856C38.5644 45.9747 38.8113 46.0071 39.0431 45.9461C39.2749 45.885 39.4727 45.7355 39.5929 45.5305C39.7131 45.3254 39.7459 45.0816 39.684 44.8527C39.6222 44.6238 39.4708 44.4285 39.2632 44.3098C39.2365 44.2956 39.2119 44.2855 39.1883 44.2723Z" fill="black" fill-opacity="0.2"/>
<path d="M45.1831 45.999C45.0657 46.6938 44.9887 47.3946 44.9523 48.0981C44.9129 48.8047 44.9129 49.5129 44.9523 50.2196C45.0467 51.6372 45.3153 53.0913 45.9778 54.4877C46.0803 54.7026 46.265 54.8684 46.4914 54.9487C46.7177 55.0291 46.9671 55.0173 47.1847 54.916C47.4022 54.8148 47.5702 54.6323 47.6515 54.4088C47.7329 54.1853 47.721 53.939 47.6184 53.7242C47.603 53.6928 47.5866 53.6624 47.5692 53.6341L47.5569 53.6158C47.2213 53.0888 46.9426 52.5284 46.7253 51.944C46.5069 51.3303 46.3335 50.7019 46.2064 50.0636C46.0814 49.4104 45.9928 48.7508 45.9409 48.088C45.888 47.4224 45.8729 46.7543 45.8957 46.0871V46.0729C45.898 45.983 45.8659 45.8956 45.8058 45.828C45.7457 45.7605 45.662 45.7178 45.5714 45.7085C45.4809 45.6991 45.3901 45.7239 45.3171 45.7777C45.2442 45.8315 45.1945 45.9105 45.1779 45.999H45.1831Z" fill="#050D2D"/>
<path d="M45.1831 45.999C45.0657 46.6938 44.9887 47.3946 44.9523 48.0981C44.9129 48.8047 44.9129 49.5129 44.9523 50.2196C45.0467 51.6372 45.3153 53.0913 45.9778 54.4877C46.0803 54.7026 46.265 54.8684 46.4914 54.9487C46.7177 55.0291 46.9671 55.0173 47.1847 54.916C47.4022 54.8148 47.5702 54.6323 47.6515 54.4088C47.7329 54.1853 47.721 53.939 47.6184 53.7242C47.603 53.6928 47.5866 53.6624 47.5692 53.6341L47.5569 53.6158C47.2213 53.0888 46.9426 52.5284 46.7253 51.944C46.5069 51.3303 46.3335 50.7019 46.2064 50.0636C46.0814 49.4104 45.9928 48.7508 45.9409 48.088C45.888 47.4224 45.8729 46.7543 45.8957 46.0871V46.0729C45.898 45.983 45.8659 45.8956 45.8058 45.828C45.7457 45.7605 45.662 45.7178 45.5714 45.7085C45.4809 45.6991 45.3901 45.7239 45.3171 45.7777C45.2442 45.8315 45.1945 45.9105 45.1779 45.999H45.1831Z" fill="black" fill-opacity="0.2"/>
<path d="M56.0258 67.9523C55.2947 67.2026 54.5029 66.5131 53.6581 65.8907C52.8266 65.2698 51.9448 64.7174 51.0218 64.2391C50.0866 63.77 49.1012 63.4059 48.0839 63.1536C47.0559 62.926 45.9977 62.862 44.9493 62.9642C44.8604 62.9769 44.7795 63.0218 44.7223 63.0903C44.6652 63.1587 44.636 63.2457 44.6403 63.3343C44.6447 63.4229 44.6823 63.5066 44.7459 63.5693C44.8095 63.6319 44.8944 63.6689 44.9841 63.673H45.0077C45.9613 63.6671 46.9099 63.8099 47.8184 64.0963C48.7212 64.4091 49.5858 64.8204 50.3963 65.3226C51.2046 65.8388 51.9691 66.4193 52.6819 67.0582C53.3894 67.686 54.0454 68.3683 54.6435 69.0986L54.661 69.1209C54.735 69.2129 54.8267 69.2896 54.9308 69.3467C55.0349 69.4037 55.1493 69.4399 55.2676 69.4533C55.3859 69.4666 55.5056 69.4569 55.6201 69.4245C55.7345 69.3921 55.8414 69.3378 55.9345 69.2647C56.0277 69.1916 56.1054 69.101 56.1632 68.9982C56.2209 68.8955 56.2576 68.7824 56.2711 68.6657C56.2846 68.5489 56.2747 68.4306 56.242 68.3176C56.2092 68.2046 56.1542 68.0991 56.0801 68.007C56.0627 67.9929 56.0443 67.9716 56.0258 67.9523Z" fill="#050D2D"/>
<path d="M56.0258 67.9523C55.2947 67.2026 54.5029 66.5131 53.6581 65.8907C52.8266 65.2698 51.9448 64.7174 51.0218 64.2391C50.0866 63.77 49.1012 63.4059 48.0839 63.1536C47.0559 62.926 45.9977 62.862 44.9493 62.9642C44.8604 62.9769 44.7795 63.0218 44.7223 63.0903C44.6652 63.1587 44.636 63.2457 44.6403 63.3343C44.6447 63.4229 44.6823 63.5066 44.7459 63.5693C44.8095 63.6319 44.8944 63.6689 44.9841 63.673H45.0077C45.9613 63.6671 46.9099 63.8099 47.8184 64.0963C48.7212 64.4091 49.5858 64.8204 50.3963 65.3226C51.2046 65.8388 51.9691 66.4193 52.6819 67.0582C53.3894 67.686 54.0454 68.3683 54.6435 69.0986L54.661 69.1209C54.735 69.2129 54.8267 69.2896 54.9308 69.3467C55.0349 69.4037 55.1493 69.4399 55.2676 69.4533C55.3859 69.4666 55.5056 69.4569 55.6201 69.4245C55.7345 69.3921 55.8414 69.3378 55.9345 69.2647C56.0277 69.1916 56.1054 69.101 56.1632 68.9982C56.2209 68.8955 56.2576 68.7824 56.2711 68.6657C56.2846 68.5489 56.2747 68.4306 56.242 68.3176C56.2092 68.2046 56.1542 68.0991 56.0801 68.007C56.0627 67.9929 56.0443 67.9716 56.0258 67.9523Z" fill="black" fill-opacity="0.2"/>
<path d="M38.8921 14.783C39.8688 15.7673 40.9962 16.5939 42.2329 17.2325C44.2409 18.3203 46.0759 19.6939 47.6789 21.3093C49.7994 23.4206 51.435 25.9461 52.7239 28.6316C55.4074 34.2161 60.269 35.5578 62.1219 31.8588C62.1539 31.8034 62.1826 31.7462 62.208 31.6876C64.7398 23.0318 59.6301 10.0389 52.9587 5.10649C49.1811 2.30358 45.0169 1.94005 41.8063 3.01646C36.8084 4.69233 34.1321 9.8749 38.8921 14.783Z" fill="#5F647E"/>
<g opacity="0.6">
<path d="M37.7938 5.69914C41.109 3.59796 46.3643 3.34481 51.0217 6.80491C57.6921 11.7333 62.8028 24.7282 60.271 33.3861C60.2137 33.5128 60.1497 33.6365 60.0792 33.7567C60.957 33.464 61.7045 32.7795 62.2029 31.6879C64.7346 23.0321 59.625 10.0392 52.9536 5.10676C47.2349 0.855804 40.6148 2.21068 37.7938 5.69914Z" fill="white"/>
</g>
<path d="M59.0077 35.1842H59.0528C60.9283 35.168 62.4992 34.0815 63.3595 32.2041C63.3845 32.1496 63.4054 32.0934 63.4221 32.036C66.2338 22.4263 60.514 9.13268 53.7175 4.1091C47.6358 -0.406143 40.4845 0.805953 37.0863 4.58706C34.2151 7.78287 34.5637 12.1229 37.9774 15.6448C39.0463 16.7221 40.2786 17.6284 41.6299 18.3313C43.5289 19.3603 45.2644 20.6596 46.7806 22.1873C48.6499 24.0465 50.2198 26.3299 51.5836 29.1673C53.3669 32.8835 56.2093 35.1842 59.0077 35.1842ZM61.0195 31.2532C60.5632 32.198 59.8916 32.681 59.0302 32.6881H59.0107C57.5444 32.6881 55.391 31.2705 53.8673 28.0969C52.4009 25.0429 50.6197 22.4627 48.5751 20.4284C46.8842 18.7273 44.9494 17.2807 42.8327 16.1349C41.7131 15.556 40.6919 14.8081 39.8057 13.9183C37.2955 11.329 36.9858 8.4603 38.9782 6.2447C41.6155 3.30812 47.2841 2.45449 52.201 6.10598C58.2048 10.5443 63.4529 22.724 61.0195 31.2532Z" fill="#050D2D"/>
<path d="M59.0077 35.1842H59.0528C60.9283 35.168 62.4992 34.0815 63.3595 32.2041C63.3845 32.1496 63.4054 32.0934 63.4221 32.036C66.2338 22.4263 60.514 9.13268 53.7175 4.1091C47.6358 -0.406143 40.4845 0.805953 37.0863 4.58706C34.2151 7.78287 34.5637 12.1229 37.9774 15.6448C39.0463 16.7221 40.2786 17.6284 41.6299 18.3313C43.5289 19.3603 45.2644 20.6596 46.7806 22.1873C48.6499 24.0465 50.2198 26.3299 51.5836 29.1673C53.3669 32.8835 56.2093 35.1842 59.0077 35.1842ZM61.0195 31.2532C60.5632 32.198 59.8916 32.681 59.0302 32.6881H59.0107C57.5444 32.6881 55.391 31.2705 53.8673 28.0969C52.4009 25.0429 50.6197 22.4627 48.5751 20.4284C46.8842 18.7273 44.9494 17.2807 42.8327 16.1349C41.7131 15.556 40.6919 14.8081 39.8057 13.9183C37.2955 11.329 36.9858 8.4603 38.9782 6.2447C41.6155 3.30812 47.2841 2.45449 52.201 6.10598C58.2048 10.5443 63.4529 22.724 61.0195 31.2532Z" fill="black" fill-opacity="0.2"/>
<path d="M45.5388 8.33785C47.5015 9.9155 49.2303 11.7696 50.8382 13.7047C52.4315 15.6527 53.8951 17.7008 55.2198 19.8361C56.5097 21.9808 57.7238 24.1772 58.5975 26.4768C59.0548 27.5986 59.4039 28.7605 59.6403 29.947C59.7544 30.5174 59.823 31.0957 59.8454 31.6766C59.8568 32.2245 59.802 32.7718 59.6824 33.3069L59.6701 33.3606C59.6303 33.5818 59.6766 33.8098 59.7998 33.9988C59.923 34.1877 60.1139 34.3238 60.3344 34.3796C60.5548 34.4354 60.7885 34.4069 60.9886 34.2998C61.1886 34.1927 61.3403 34.0149 61.4133 33.8021C61.8378 32.3672 61.7671 30.9354 61.5312 29.6088C61.2785 28.3009 60.9009 27.0196 60.4033 25.7822C59.3982 23.3772 58.1482 21.0792 56.6728 18.9237C55.2247 16.7786 53.6106 14.7473 51.8451 12.848C50.0742 10.9615 48.1536 9.1844 45.9633 7.76066C45.8862 7.70818 45.7914 7.68738 45.699 7.70264C45.6066 7.7179 45.5239 7.76803 45.4682 7.84244C45.4126 7.91685 45.3884 8.00972 45.4008 8.10141C45.4132 8.19309 45.4612 8.27642 45.5347 8.33379L45.5388 8.33785Z" fill="#050D2D"/>
<path d="M45.5388 8.33785C47.5015 9.9155 49.2303 11.7696 50.8382 13.7047C52.4315 15.6527 53.8951 17.7008 55.2198 19.8361C56.5097 21.9808 57.7238 24.1772 58.5975 26.4768C59.0548 27.5986 59.4039 28.7605 59.6403 29.947C59.7544 30.5174 59.823 31.0957 59.8454 31.6766C59.8568 32.2245 59.802 32.7718 59.6824 33.3069L59.6701 33.3606C59.6303 33.5818 59.6766 33.8098 59.7998 33.9988C59.923 34.1877 60.1139 34.3238 60.3344 34.3796C60.5548 34.4354 60.7885 34.4069 60.9886 34.2998C61.1886 34.1927 61.3403 34.0149 61.4133 33.8021C61.8378 32.3672 61.7671 30.9354 61.5312 29.6088C61.2785 28.3009 60.9009 27.0196 60.4033 25.7822C59.3982 23.3772 58.1482 21.0792 56.6728 18.9237C55.2247 16.7786 53.6106 14.7473 51.8451 12.848C50.0742 10.9615 48.1536 9.1844 45.9633 7.76066C45.8862 7.70818 45.7914 7.68738 45.699 7.70264C45.6066 7.7179 45.5239 7.76803 45.4682 7.84244C45.4126 7.91685 45.3884 8.00972 45.4008 8.10141C45.4132 8.19309 45.4612 8.27642 45.5347 8.33379L45.5388 8.33785Z" fill="black" fill-opacity="0.2"/>
<path d="M58.5985 22.1714C58.0438 21.3715 57.409 20.6289 56.7035 19.9548C56.0151 19.2905 55.2646 18.6921 54.462 18.1675C53.6623 17.6405 52.8016 17.2098 51.8984 16.8845C51.0063 16.5321 50.0527 16.3782 49.1134 16.2587C49.0228 16.2495 48.932 16.2744 48.8593 16.3285C48.7865 16.3826 48.7371 16.4618 48.721 16.5503C48.705 16.6388 48.7234 16.7301 48.7725 16.8058C48.8217 16.8815 48.8981 16.936 48.9862 16.9584L49.018 16.9655C49.8794 17.168 50.7325 17.3858 51.5139 17.7888C52.3019 18.1631 53.0417 18.6292 53.7175 19.1771C54.3946 19.7213 55.0181 20.3276 55.5797 20.9876C56.1308 21.6314 56.6178 22.3263 57.0337 23.0625L57.0522 23.0969C57.1661 23.3054 57.3593 23.4607 57.5892 23.5286C57.8191 23.5965 58.0669 23.5714 58.2781 23.4589C58.4892 23.3464 58.6465 23.1556 58.7152 22.9286C58.784 22.7016 58.7586 22.4569 58.6446 22.2483C58.6262 22.222 58.6149 22.1957 58.5985 22.1714Z" fill="#050D2D"/>
<path d="M58.5985 22.1714C58.0438 21.3715 57.409 20.6289 56.7035 19.9548C56.0151 19.2905 55.2646 18.6921 54.462 18.1675C53.6623 17.6405 52.8016 17.2098 51.8984 16.8845C51.0063 16.5321 50.0527 16.3782 49.1134 16.2587C49.0228 16.2495 48.932 16.2744 48.8593 16.3285C48.7865 16.3826 48.7371 16.4618 48.721 16.5503C48.705 16.6388 48.7234 16.7301 48.7725 16.8058C48.8217 16.8815 48.8981 16.936 48.9862 16.9584L49.018 16.9655C49.8794 17.168 50.7325 17.3858 51.5139 17.7888C52.3019 18.1631 53.0417 18.6292 53.7175 19.1771C54.3946 19.7213 55.0181 20.3276 55.5797 20.9876C56.1308 21.6314 56.6178 22.3263 57.0337 23.0625L57.0522 23.0969C57.1661 23.3054 57.3593 23.4607 57.5892 23.5286C57.8191 23.5965 58.0669 23.5714 58.2781 23.4589C58.4892 23.3464 58.6465 23.1556 58.7152 22.9286C58.784 22.7016 58.7586 22.4569 58.6446 22.2483C58.6262 22.222 58.6149 22.1957 58.5985 22.1714Z" fill="black" fill-opacity="0.2"/>
<path d="M50.911 8.9031C51.3315 10.8662 51.8826 12.7998 52.5609 14.6912C53.2613 16.5899 54.1544 18.4571 55.3798 20.1593C55.5181 20.3527 55.7285 20.4839 55.9647 20.524C56.201 20.5642 56.4437 20.5101 56.6395 20.3735C56.8353 20.2369 56.9682 20.0291 57.0089 19.7958C57.0495 19.5626 56.9947 19.3229 56.8564 19.1295C56.84 19.1072 56.8215 19.0839 56.8041 19.0637C55.5664 17.6339 54.5636 15.9671 53.7279 14.2102C52.8921 12.4533 52.2133 10.5962 51.6093 8.71577C51.5805 8.62897 51.5191 8.55636 51.4378 8.51286C51.3564 8.46936 51.2613 8.45826 51.1719 8.48185C51.0826 8.50543 51.0057 8.56191 50.9572 8.63968C50.9087 8.71746 50.8922 8.81064 50.911 8.90007V8.9031Z" fill="#050D2D"/>
<path d="M50.911 8.9031C51.3315 10.8662 51.8826 12.7998 52.5609 14.6912C53.2613 16.5899 54.1544 18.4571 55.3798 20.1593C55.5181 20.3527 55.7285 20.4839 55.9647 20.524C56.201 20.5642 56.4437 20.5101 56.6395 20.3735C56.8353 20.2369 56.9682 20.0291 57.0089 19.7958C57.0495 19.5626 56.9947 19.3229 56.8564 19.1295C56.84 19.1072 56.8215 19.0839 56.8041 19.0637C55.5664 17.6339 54.5636 15.9671 53.7279 14.2102C52.8921 12.4533 52.2133 10.5962 51.6093 8.71577C51.5805 8.62897 51.5191 8.55636 51.4378 8.51286C51.3564 8.46936 51.2613 8.45826 51.1719 8.48185C51.0826 8.50543 51.0057 8.56191 50.9572 8.63968C50.9087 8.71746 50.8922 8.81064 50.911 8.90007V8.9031Z" fill="black" fill-opacity="0.2"/>
<g opacity="0.3">
<path d="M38.8921 14.7832C39.8689 15.7675 40.9962 16.5941 42.2329 17.2328C44.2409 18.3205 46.076 19.6941 47.6789 21.3095C49.7995 23.4208 51.435 25.9463 52.724 28.6318C55.4075 34.2163 60.269 35.558 62.1219 31.859C62.0924 31.3909 62.0024 30.9284 61.8543 30.4828C59.8537 30.896 57.7629 29.937 56.3396 28.4849C54.9163 27.0328 54.0498 25.1504 53.2633 23.2892C52.4769 21.428 51.717 19.5192 50.464 17.9224C49.2109 16.3255 47.5025 15.1235 45.9029 13.8466C44.3032 12.5697 42.7426 11.1358 41.9192 9.27767C41.0957 7.41952 41.1819 5.03379 42.6236 3.58575C42.356 3.40753 42.0853 3.2111 41.8105 3.01465C36.8085 4.69255 34.1321 9.87511 38.8921 14.7832Z" fill="#050D2D"/>
<path d="M38.8921 14.7832C39.8689 15.7675 40.9962 16.5941 42.2329 17.2328C44.2409 18.3205 46.076 19.6941 47.6789 21.3095C49.7995 23.4208 51.435 25.9463 52.724 28.6318C55.4075 34.2163 60.269 35.558 62.1219 31.859C62.0924 31.3909 62.0024 30.9284 61.8543 30.4828C59.8537 30.896 57.7629 29.937 56.3396 28.4849C54.9163 27.0328 54.0498 25.1504 53.2633 23.2892C52.4769 21.428 51.717 19.5192 50.464 17.9224C49.2109 16.3255 47.5025 15.1235 45.9029 13.8466C44.3032 12.5697 42.7426 11.1358 41.9192 9.27767C41.0957 7.41952 41.1819 5.03379 42.6236 3.58575C42.356 3.40753 42.0853 3.2111 41.8105 3.01465C36.8085 4.69255 34.1321 9.87511 38.8921 14.7832Z" fill="black" fill-opacity="0.2"/>
</g>
<path d="M107.759 11.2006C108.001 10.2195 108.023 9.1982 107.825 8.2077C107.626 7.21721 107.212 6.28132 106.61 5.46514C101.497 -1.45102 92.3933 0.42232 80.359 8.63057C60.1972 23.0553 52.8224 41.8555 57.0881 52.572C58.1228 55.1693 60.3131 57.2118 63.0653 57.8497C69.2178 59.2775 76.1907 53.8408 84.4278 37.7999C87.7092 30.1334 92.18 24.0972 98.9108 21.1526C103.198 18.7901 106.623 15.813 107.759 11.2006Z" fill="#5F647E"/>
<g opacity="0.3">
<path d="M57.0881 52.572C58.0776 55.0539 60.1254 57.0275 62.7043 57.7576C61.7781 56.863 61.0544 55.7849 60.5807 54.5942C56.3118 43.8797 63.6897 25.0775 83.8505 10.6467C92.6045 4.6723 99.8101 2.05571 105.054 3.73563C99.7486 -1.04391 91.254 1.19194 80.361 8.62452C60.1982 23.0553 52.8234 41.8555 57.0881 52.572Z" fill="#050D2D"/>
<path d="M57.0881 52.572C58.0776 55.0539 60.1254 57.0275 62.7043 57.7576C61.7781 56.863 61.0544 55.7849 60.5807 54.5942C56.3118 43.8797 63.6897 25.0775 83.8505 10.6467C92.6045 4.6723 99.8101 2.05571 105.054 3.73563C99.7486 -1.04391 91.254 1.19194 80.361 8.62452C60.1982 23.0553 52.8234 41.8555 57.0881 52.572Z" fill="black" fill-opacity="0.2"/>
</g>
<g opacity="0.6">
<path d="M60.151 56.52C61.0233 57.1501 62.014 57.6021 63.0653 57.8496C69.2229 59.2764 76.1968 53.8417 84.4319 37.7998C87.7132 30.1313 92.182 24.0971 98.9139 21.1514C103.197 18.787 106.625 15.8089 107.759 11.1974C108 10.2164 108.023 9.19526 107.824 8.20487C107.626 7.21449 107.212 6.27856 106.611 5.46199C105.175 3.51878 103.422 2.27024 101.381 1.66064C102.381 2.35816 103.255 3.21626 103.967 4.19926C104.568 5.01577 104.983 5.95169 105.181 6.9421C105.379 7.9325 105.357 8.95366 105.116 9.93471C103.978 14.5462 100.555 17.5293 96.2673 19.8887C89.5385 22.8344 85.0677 28.8696 81.7853 36.5371C73.5502 52.5759 66.5804 58.0106 60.4228 56.5869C60.3274 56.5656 60.2372 56.5443 60.151 56.52Z" fill="white"/>
</g>
<path d="M64.9725 59.3189C71.5793 59.3189 78.3378 52.4331 85.5578 38.3669C85.5711 38.3416 85.5834 38.3152 85.5947 38.2889C89.117 30.0584 93.6402 24.8272 99.4245 22.2967C99.4597 22.2815 99.4939 22.2642 99.5271 22.2451C102.911 20.3778 107.573 17.2316 108.986 11.4951C109.272 10.3378 109.299 9.1326 109.065 7.96384C108.831 6.79508 108.34 5.691 107.629 4.72885C102.34 -2.42628 92.9223 -1.45822 79.635 7.60367C70.0042 14.4894 62.6756 22.7331 58.417 31.4497C54.4722 39.5273 53.5812 47.1908 55.9068 53.0285C57.1281 56.0947 59.6937 58.3508 62.771 59.0647C63.4924 59.2333 64.2312 59.3186 64.9725 59.3189ZM83.2834 37.2763C75.9773 51.4924 69.2793 58.0065 63.3555 56.6344C61.0872 56.1079 59.184 54.4178 58.2663 52.1152C54.3379 42.2543 61.0062 24.0171 81.1024 9.64104C93.1849 1.39836 101.201 0.266262 105.589 6.19816C106.084 6.86725 106.424 7.63499 106.587 8.44764C106.75 9.26029 106.73 10.0982 106.531 10.9028C105.624 14.5836 103.099 17.4017 98.3458 20.0345C91.9821 22.8415 87.0539 28.4817 83.2834 37.2763Z" fill="#050D2D"/>
<path d="M64.9725 59.3189C71.5793 59.3189 78.3378 52.4331 85.5578 38.3669C85.5711 38.3416 85.5834 38.3152 85.5947 38.2889C89.117 30.0584 93.6402 24.8272 99.4245 22.2967C99.4597 22.2815 99.4939 22.2642 99.5271 22.2451C102.911 20.3778 107.573 17.2316 108.986 11.4951C109.272 10.3378 109.299 9.1326 109.065 7.96384C108.831 6.79508 108.34 5.691 107.629 4.72885C102.34 -2.42628 92.9223 -1.45822 79.635 7.60367C70.0042 14.4894 62.6756 22.7331 58.417 31.4497C54.4722 39.5273 53.5812 47.1908 55.9068 53.0285C57.1281 56.0947 59.6937 58.3508 62.771 59.0647C63.4924 59.2333 64.2312 59.3186 64.9725 59.3189ZM83.2834 37.2763C75.9773 51.4924 69.2793 58.0065 63.3555 56.6344C61.0872 56.1079 59.184 54.4178 58.2663 52.1152C54.3379 42.2543 61.0062 24.0171 81.1024 9.64104C93.1849 1.39836 101.201 0.266262 105.589 6.19816C106.084 6.86725 106.424 7.63499 106.587 8.44764C106.75 9.26029 106.73 10.0982 106.531 10.9028C105.624 14.5836 103.099 17.4017 98.3458 20.0345C91.9821 22.8415 87.0539 28.4817 83.2834 37.2763Z" fill="black" fill-opacity="0.2"/>
<path d="M93.4126 8.69731L90.1825 10.6598C89.1335 11.3554 88.105 12.0855 87.0724 12.8095C86.0531 13.5528 85.0903 14.3669 84.0987 15.1385C83.5942 15.5203 83.1338 15.9486 82.6631 16.3679L81.2501 17.6265C77.575 21.0796 74.2188 24.8829 71.3466 29.0255C68.4744 33.1681 65.9662 37.5639 64.0067 42.2037C62.0296 46.8334 60.5397 51.6777 59.6927 56.6426C59.6496 56.8751 59.7018 57.1151 59.8379 57.3096C59.9739 57.5042 60.1827 57.6374 60.4182 57.68C60.6537 57.7225 60.8967 57.671 61.0937 57.5366C61.2907 57.4023 61.4256 57.1961 61.4687 56.9636V56.9565C62.4285 52.1552 63.8854 47.4641 65.8165 42.9571C67.7484 38.4441 70.1111 34.123 72.8724 30.0523C75.6544 26.0019 78.7706 22.1539 82.2981 18.6928C85.8059 15.1927 89.6579 12.0462 93.7971 9.29981L93.8084 9.29171C93.8889 9.24042 93.9454 9.15965 93.9656 9.06716C93.9858 8.97468 93.968 8.87807 93.916 8.79857C93.8641 8.71908 93.7823 8.66321 93.6887 8.64327C93.595 8.62333 93.4972 8.64095 93.4167 8.69224L93.4126 8.69731Z" fill="#050D2D"/>
<path d="M93.4126 8.69731L90.1825 10.6598C89.1335 11.3554 88.105 12.0855 87.0724 12.8095C86.0531 13.5528 85.0903 14.3669 84.0987 15.1385C83.5942 15.5203 83.1338 15.9486 82.6631 16.3679L81.2501 17.6265C77.575 21.0796 74.2188 24.8829 71.3466 29.0255C68.4744 33.1681 65.9662 37.5639 64.0067 42.2037C62.0296 46.8334 60.5397 51.6777 59.6927 56.6426C59.6496 56.8751 59.7018 57.1151 59.8379 57.3096C59.9739 57.5042 60.1827 57.6374 60.4182 57.68C60.6537 57.7225 60.8967 57.671 61.0937 57.5366C61.2907 57.4023 61.4256 57.1961 61.4687 56.9636V56.9565C62.4285 52.1552 63.8854 47.4641 65.8165 42.9571C67.7484 38.4441 70.1111 34.123 72.8724 30.0523C75.6544 26.0019 78.7706 22.1539 82.2981 18.6928C85.8059 15.1927 89.6579 12.0462 93.7971 9.29981L93.8084 9.29171C93.8889 9.24042 93.9454 9.15965 93.9656 9.06716C93.9858 8.97468 93.968 8.87807 93.916 8.79857C93.8641 8.71908 93.7823 8.66321 93.6887 8.64327C93.595 8.62333 93.4972 8.64095 93.4167 8.69224L93.4126 8.69731Z" fill="black" fill-opacity="0.2"/>
<path d="M75.6544 26.3369C76.5444 25.5804 77.4806 24.8787 78.4579 24.2357C79.4376 23.5801 80.4598 22.9885 81.5177 22.4647C82.5716 21.9449 83.6717 21.5222 84.8042 21.2019C85.9323 20.8975 87.1002 20.761 88.2691 20.7969H88.2845C88.3759 20.798 88.4643 20.7648 88.5319 20.704C88.5995 20.6432 88.6412 20.5594 88.6486 20.4694C88.656 20.3794 88.6286 20.29 88.5718 20.2192C88.5151 20.1485 88.4333 20.1016 88.3429 20.0881C87.0883 19.9538 85.8205 20.0064 84.5817 20.244C83.3565 20.4941 82.1574 20.8558 80.9999 21.3245C79.8484 21.7914 78.7293 22.3326 77.6499 22.9446C76.5577 23.5541 75.5052 24.2305 74.4987 24.9699C74.4038 25.0402 74.3238 25.1283 74.2634 25.2292C74.2029 25.3301 74.1632 25.4417 74.1464 25.5577C74.1297 25.6738 74.1362 25.7919 74.1657 25.9055C74.1952 26.019 74.247 26.1257 74.3183 26.2194C74.3895 26.3132 74.4787 26.3922 74.5809 26.4519C74.683 26.5115 74.7961 26.5508 74.9136 26.5673C75.0311 26.5839 75.1507 26.5774 75.2657 26.5483C75.3806 26.5192 75.4887 26.468 75.5836 26.3977C75.6021 26.3845 75.6185 26.3703 75.6349 26.3561L75.6544 26.3369Z" fill="#050D2D"/>
<path d="M75.6544 26.3369C76.5444 25.5804 77.4806 24.8787 78.4579 24.2357C79.4376 23.5801 80.4598 22.9885 81.5177 22.4647C82.5716 21.9449 83.6717 21.5222 84.8042 21.2019C85.9323 20.8975 87.1002 20.761 88.2691 20.7969H88.2845C88.3759 20.798 88.4643 20.7648 88.5319 20.704C88.5995 20.6432 88.6412 20.5594 88.6486 20.4694C88.656 20.3794 88.6286 20.29 88.5718 20.2192C88.5151 20.1485 88.4333 20.1016 88.3429 20.0881C87.0883 19.9538 85.8205 20.0064 84.5817 20.244C83.3565 20.4941 82.1574 20.8558 80.9999 21.3245C79.8484 21.7914 78.7293 22.3326 77.6499 22.9446C76.5577 23.5541 75.5052 24.2305 74.4987 24.9699C74.4038 25.0402 74.3238 25.1283 74.2634 25.2292C74.2029 25.3301 74.1632 25.4417 74.1464 25.5577C74.1297 25.6738 74.1362 25.7919 74.1657 25.9055C74.1952 26.019 74.247 26.1257 74.3183 26.2194C74.3895 26.3132 74.4787 26.3922 74.5809 26.4519C74.683 26.5115 74.7961 26.5508 74.9136 26.5673C75.0311 26.5839 75.1507 26.5774 75.2657 26.5483C75.3806 26.5192 75.4887 26.468 75.5836 26.3977C75.6021 26.3845 75.6185 26.3703 75.6349 26.3561L75.6544 26.3369Z" fill="black" fill-opacity="0.2"/>
<path d="M69.6638 25.3246C69.7572 25.9863 69.8123 26.6526 69.8289 27.3205C69.8472 27.9849 69.8284 28.6499 69.7725 29.3123C69.7134 29.9603 69.6072 30.6033 69.4547 31.2362C69.2996 31.8397 69.081 32.4255 68.8025 32.984L68.7953 32.9982C68.7397 33.1038 68.706 33.2192 68.6962 33.3378C68.6864 33.4564 68.7006 33.5757 68.7381 33.6888C68.7755 33.8019 68.8355 33.9064 68.9144 33.9963C68.9933 34.0863 69.0896 34.1597 69.1976 34.2124C69.3056 34.2651 69.4232 34.296 69.5435 34.3032C69.6637 34.3105 69.7843 34.294 69.898 34.2546C70.0117 34.2153 70.1163 34.1539 70.2057 34.0742C70.2951 33.9944 70.3675 33.8978 70.4186 33.7901C70.4345 33.7571 70.4486 33.7233 70.4606 33.6888C70.9733 32.2327 71.0923 30.7603 71.0369 29.3346C71.0032 28.628 70.93 27.9238 70.8174 27.2253C70.7079 26.529 70.5576 25.8396 70.3673 25.1606C70.3437 25.0721 70.2866 24.9961 70.2077 24.9481C70.1289 24.9001 70.0345 24.8838 69.9439 24.9027C69.8533 24.9215 69.7734 24.9741 69.7209 25.0494C69.6685 25.1247 69.6473 25.2171 69.6618 25.3074L69.6638 25.3246Z" fill="#050D2D"/>
<path d="M69.6638 25.3246C69.7572 25.9863 69.8123 26.6526 69.8289 27.3205C69.8472 27.9849 69.8284 28.6499 69.7725 29.3123C69.7134 29.9603 69.6072 30.6033 69.4547 31.2362C69.2996 31.8397 69.081 32.4255 68.8025 32.984L68.7953 32.9982C68.7397 33.1038 68.706 33.2192 68.6962 33.3378C68.6864 33.4564 68.7006 33.5757 68.7381 33.6888C68.7755 33.8019 68.8355 33.9064 68.9144 33.9963C68.9933 34.0863 69.0896 34.1597 69.1976 34.2124C69.3056 34.2651 69.4232 34.296 69.5435 34.3032C69.6637 34.3105 69.7843 34.294 69.898 34.2546C70.0117 34.2153 70.1163 34.1539 70.2057 34.0742C70.2951 33.9944 70.3675 33.8978 70.4186 33.7901C70.4345 33.7571 70.4486 33.7233 70.4606 33.6888C70.9733 32.2327 71.0923 30.7603 71.0369 29.3346C71.0032 28.628 70.93 27.9238 70.8174 27.2253C70.7079 26.529 70.5576 25.8396 70.3673 25.1606C70.3437 25.0721 70.2866 24.9961 70.2077 24.9481C70.1289 24.9001 70.0345 24.8838 69.9439 24.9027C69.8533 24.9215 69.7734 24.9741 69.7209 25.0494C69.6685 25.1247 69.6473 25.2171 69.6618 25.3074L69.6638 25.3246Z" fill="black" fill-opacity="0.2"/>
<path d="M63.3842 49.1098C63.9024 48.3229 64.4832 47.5779 65.1212 46.8821C65.7631 46.1736 66.4623 45.5179 67.2121 44.9217C67.9656 44.3395 68.7824 43.842 69.6474 43.4382C70.5207 43.0596 71.4493 42.8203 72.3986 42.7293H72.4202C72.5091 42.7165 72.5901 42.6713 72.6471 42.6025C72.7041 42.5338 72.733 42.4466 72.7283 42.3579C72.7235 42.2692 72.6854 42.1854 72.6214 42.123C72.5574 42.0606 72.4721 42.0241 72.3822 42.0205C71.329 42.0261 70.2833 42.197 69.2844 42.5268C68.2993 42.8824 67.3576 43.3457 66.4768 43.908C65.609 44.4785 64.7897 45.1179 64.0271 45.8198C63.2526 46.5262 62.5376 47.2936 61.8891 48.1144C61.7428 48.3024 61.6781 48.5401 61.7092 48.7752C61.7404 49.0103 61.8648 49.2236 62.0552 49.368C62.2456 49.5125 62.4863 49.5764 62.7244 49.5457C62.9624 49.5149 63.1784 49.392 63.3247 49.204C63.3417 49.1833 63.3574 49.1617 63.3719 49.1392L63.3842 49.1098Z" fill="#050D2D"/>
<path d="M63.3842 49.1098C63.9024 48.3229 64.4832 47.5779 65.1212 46.8821C65.7631 46.1736 66.4623 45.5179 67.2121 44.9217C67.9656 44.3395 68.7824 43.842 69.6474 43.4382C70.5207 43.0596 71.4493 42.8203 72.3986 42.7293H72.4202C72.5091 42.7165 72.5901 42.6713 72.6471 42.6025C72.7041 42.5338 72.733 42.4466 72.7283 42.3579C72.7235 42.2692 72.6854 42.1854 72.6214 42.123C72.5574 42.0606 72.4721 42.0241 72.3822 42.0205C71.329 42.0261 70.2833 42.197 69.2844 42.5268C68.2993 42.8824 67.3576 43.3457 66.4768 43.908C65.609 44.4785 64.7897 45.1179 64.0271 45.8198C63.2526 46.5262 62.5376 47.2936 61.8891 48.1144C61.7428 48.3024 61.6781 48.5401 61.7092 48.7752C61.7404 49.0103 61.8648 49.2236 62.0552 49.368C62.2456 49.5125 62.4863 49.5764 62.7244 49.5457C62.9624 49.5149 63.1784 49.392 63.3247 49.204C63.3417 49.1833 63.3574 49.1617 63.3719 49.1392L63.3842 49.1098Z" fill="black" fill-opacity="0.2"/>
<path d="M64.4209 75.3324C64.3766 76.3435 64.7201 77.3339 65.3827 78.106C66.9383 79.8558 69.4444 79.4568 71.1979 76.8524C71.6026 76.2295 72.0849 75.6594 72.6335 75.1552C76.8541 71.3934 81.2541 72.3199 85.6973 74.413C86.2852 74.6925 86.8731 74.9882 87.461 75.3C88.5808 75.8924 89.7036 76.5283 90.8264 77.1572C94.0883 79.1196 97.2538 80.2365 100.187 80.679C100.356 80.7034 100.528 80.6932 100.692 80.649C100.856 80.6048 101.01 80.5276 101.143 80.4222C101.275 80.3168 101.385 80.1854 101.464 80.0364C101.543 79.8874 101.59 79.7238 101.602 79.5561V79.5419C101.924 75.8428 104.595 73.049 107.567 73.3011C108.251 73.3605 108.911 73.5757 109.495 73.93C110.44 74.496 111.213 75.3993 111.721 76.5101C111.803 76.6874 111.928 76.8424 112.084 76.9618C112.239 77.0811 112.422 77.1613 112.617 77.1954C112.811 77.2295 113.011 77.2164 113.199 77.1574C113.387 77.0983 113.558 76.995 113.696 76.8564C117.02 73.4834 117.901 68.4781 114.858 63.7026C113.378 61.3796 111.196 59.5832 108.685 58.4117C104.288 56.3631 98.9508 55.3444 93.5284 55.3394C93.4128 55.3386 93.2985 55.3639 93.1943 55.4133C93.09 55.4626 92.9986 55.5348 92.9268 55.6243C92.855 55.7139 92.8049 55.8183 92.7801 55.9299C92.7554 56.0414 92.7567 56.157 92.784 56.268C92.8897 56.6984 92.9243 57.143 92.8865 57.5844C92.706 59.6562 91.0161 61.2055 89.1089 61.0444C87.2016 60.8834 85.8039 59.0709 85.9844 56.9991V56.9879C85.997 56.8699 85.9814 56.7506 85.9389 56.6397C85.8964 56.5287 85.8281 56.4291 85.7396 56.3488C85.6511 56.2686 85.5447 56.2099 85.4291 56.1776C85.3135 56.1453 85.1918 56.1402 85.0738 56.1626C82.8009 56.6092 80.5746 57.2617 78.423 58.1119C70.5795 61.247 64.6834 67.0179 64.4209 75.3324Z" fill="#5F647E"/>
<g opacity="0.6">
<path d="M92.7798 56.268C92.8488 56.5523 92.8856 56.8434 92.8895 57.1357C97.6218 57.3555 102.211 58.36 106.07 60.1625C108.582 61.3341 110.764 63.1304 112.244 65.4534C114.862 69.5636 114.574 73.8419 112.325 77.1055C112.551 77.2085 112.804 77.2398 113.049 77.1952C113.294 77.1506 113.518 77.0323 113.692 76.8564C117.016 73.4834 117.896 68.4781 114.854 63.7026C113.374 61.3796 111.192 59.5832 108.681 58.4117C104.284 56.3631 98.9467 55.3444 93.5242 55.3394C93.4086 55.3386 93.2944 55.3639 93.1901 55.4133C93.0859 55.4626 92.9944 55.5348 92.9226 55.6243C92.8509 55.7139 92.8007 55.8183 92.776 55.9299C92.7512 56.0414 92.7525 56.157 92.7798 56.268Z" fill="white"/>
</g>
<g opacity="0.6">
<path d="M71.689 61.8666C74.8555 60.0095 78.5593 58.691 82.4559 57.9174C82.5739 57.8947 82.6957 57.8997 82.8114 57.9319C82.9271 57.9641 83.0336 58.0228 83.1221 58.1031C83.2107 58.1834 83.279 58.2831 83.3214 58.3942C83.3639 58.5052 83.3793 58.6246 83.3665 58.7427V58.7538C83.186 60.8256 84.5836 62.6372 86.4909 62.7992C87.824 62.9116 89.0452 62.1916 89.7251 61.0403C89.5177 61.0623 89.3086 61.065 89.1006 61.0484C87.1933 60.8864 85.7957 59.0748 85.9762 57.003V56.9919C85.9888 56.8739 85.9732 56.7546 85.9306 56.6436C85.8881 56.5326 85.8199 56.433 85.7313 56.3528C85.6428 56.2725 85.5365 56.2139 85.4209 56.1816C85.3053 56.1492 85.1836 56.1441 85.0656 56.1666C80.04 57.163 75.3323 59.0698 71.689 61.8666Z" fill="white"/>
</g>
<path d="M100.375 81.9416C100.93 81.9419 101.468 81.7567 101.903 81.416C102.174 81.2033 102.399 80.9381 102.562 80.6367C102.726 80.3353 102.826 80.004 102.856 79.6632C103.118 76.6405 105.194 74.3591 107.455 74.5434C108.739 74.6528 109.903 75.5803 110.567 77.0253C110.733 77.3879 110.987 77.705 111.305 77.949C111.624 78.193 111.998 78.3566 112.395 78.4256C112.792 78.4946 113.2 78.467 113.584 78.3451C113.968 78.2232 114.316 78.0107 114.598 77.726C118.597 73.6645 119.11 68.0363 115.925 63.0431C114.366 60.5977 112.048 58.6069 109.221 57.2874C104.753 55.2035 99.3251 54.1007 93.5243 54.0967C93.2174 54.0961 92.9143 54.1645 92.638 54.2966C92.3617 54.4286 92.1194 54.6209 91.9294 54.859C91.7394 55.097 91.6066 55.3746 91.5412 55.6708C91.4757 55.9669 91.4792 56.2739 91.5514 56.5685C91.6235 56.8667 91.6464 57.1744 91.6191 57.4798C91.5707 58.1498 91.2709 58.7777 90.7782 59.2408C90.574 59.4415 90.3279 59.5958 90.0571 59.693C89.7863 59.7902 89.4973 59.8279 89.2102 59.8035C88.9231 59.7791 88.6448 59.6932 88.3948 59.5518C88.1448 59.4104 87.929 59.2168 87.7625 58.9846C87.3575 58.4471 87.17 57.7799 87.2364 57.1133C87.2364 57.1133 87.2364 57.1062 87.2364 57.1021C87.2646 56.7882 87.2186 56.472 87.102 56.1786C86.9855 55.8852 86.8016 55.6224 86.5648 55.4111C86.3314 55.204 86.0522 55.0539 85.7495 54.9726C85.4468 54.8914 85.129 54.8813 84.8216 54.9432C71.7752 57.5365 63.4755 65.3357 63.1617 75.2968C63.1064 76.6233 63.5622 77.9212 64.4373 78.929C65.3602 79.97 66.5968 80.5016 67.9104 80.4095C69.5408 80.3021 71.0892 79.2845 72.2551 77.5428C72.6019 77.0063 73.0153 76.5147 73.4856 76.0795C78.4496 71.6534 83.6085 74.5454 89.5846 77.8941L90.2081 78.2435C93.4228 80.1776 96.7298 81.4201 100.002 81.9122C100.125 81.931 100.25 81.9408 100.375 81.9416ZM107.195 72.0362C103.728 72.0362 100.702 75.2472 100.338 79.4354C97.4342 79.002 94.442 77.8739 91.4786 76.0937L90.8234 75.7261C84.8616 72.3845 78.102 68.5963 71.7813 74.2315C71.1546 74.8065 70.6034 75.457 70.1407 76.1676C69.4229 77.2279 68.5492 77.8678 67.734 77.9215C67.2121 77.9569 66.7373 77.7433 66.3302 77.2866C65.881 76.7502 65.6496 76.0681 65.6811 75.3727C65.958 66.6551 73.0508 60.0114 84.6975 57.5183C84.7233 58.5963 85.0913 59.6391 85.7496 60.4995C86.1303 61.0081 86.6164 61.4309 87.1754 61.7397C87.7344 62.0485 88.3537 62.2362 88.9919 62.2903C89.63 62.3444 90.2726 62.2637 90.8767 62.0536C91.4809 61.8435 92.0328 61.5087 92.4958 61.0716C93.4496 60.1874 94.0347 58.9834 94.1365 57.6955C94.1682 57.3293 94.1623 56.9609 94.119 56.5958C99.322 56.6718 104.158 57.6864 108.139 59.5425C110.53 60.6564 112.481 62.3282 113.778 64.3707C116.299 68.327 115.932 72.7571 112.819 75.9479C111.803 73.71 109.866 72.2468 107.665 72.0595C107.512 72.0433 107.353 72.0362 107.195 72.0362Z" fill="#050D2D"/>
<path d="M100.375 81.9416C100.93 81.9419 101.468 81.7567 101.903 81.416C102.174 81.2033 102.399 80.9381 102.562 80.6367C102.726 80.3353 102.826 80.004 102.856 79.6632C103.118 76.6405 105.194 74.3591 107.455 74.5434C108.739 74.6528 109.903 75.5803 110.567 77.0253C110.733 77.3879 110.987 77.705 111.305 77.949C111.624 78.193 111.998 78.3566 112.395 78.4256C112.792 78.4946 113.2 78.467 113.584 78.3451C113.968 78.2232 114.316 78.0107 114.598 77.726C118.597 73.6645 119.11 68.0363 115.925 63.0431C114.366 60.5977 112.048 58.6069 109.221 57.2874C104.753 55.2035 99.3251 54.1007 93.5243 54.0967C93.2174 54.0961 92.9143 54.1645 92.638 54.2966C92.3617 54.4286 92.1194 54.6209 91.9294 54.859C91.7394 55.097 91.6066 55.3746 91.5412 55.6708C91.4757 55.9669 91.4792 56.2739 91.5514 56.5685C91.6235 56.8667 91.6464 57.1744 91.6191 57.4798C91.5707 58.1498 91.2709 58.7777 90.7782 59.2408C90.574 59.4415 90.3279 59.5958 90.0571 59.693C89.7863 59.7902 89.4973 59.8279 89.2102 59.8035C88.9231 59.7791 88.6448 59.6932 88.3948 59.5518C88.1448 59.4104 87.929 59.2168 87.7625 58.9846C87.3575 58.4471 87.17 57.7799 87.2364 57.1133C87.2364 57.1133 87.2364 57.1062 87.2364 57.1021C87.2646 56.7882 87.2186 56.472 87.102 56.1786C86.9855 55.8852 86.8016 55.6224 86.5648 55.4111C86.3314 55.204 86.0522 55.0539 85.7495 54.9726C85.4468 54.8914 85.129 54.8813 84.8216 54.9432C71.7752 57.5365 63.4755 65.3357 63.1617 75.2968C63.1064 76.6233 63.5622 77.9212 64.4373 78.929C65.3602 79.97 66.5968 80.5016 67.9104 80.4095C69.5408 80.3021 71.0892 79.2845 72.2551 77.5428C72.6019 77.0063 73.0153 76.5147 73.4856 76.0795C78.4496 71.6534 83.6085 74.5454 89.5846 77.8941L90.2081 78.2435C93.4228 80.1776 96.7298 81.4201 100.002 81.9122C100.125 81.931 100.25 81.9408 100.375 81.9416ZM107.195 72.0362C103.728 72.0362 100.702 75.2472 100.338 79.4354C97.4342 79.002 94.442 77.8739 91.4786 76.0937L90.8234 75.7261C84.8616 72.3845 78.102 68.5963 71.7813 74.2315C71.1546 74.8065 70.6034 75.457 70.1407 76.1676C69.4229 77.2279 68.5492 77.8678 67.734 77.9215C67.2121 77.9569 66.7373 77.7433 66.3302 77.2866C65.881 76.7502 65.6496 76.0681 65.6811 75.3727C65.958 66.6551 73.0508 60.0114 84.6975 57.5183C84.7233 58.5963 85.0913 59.6391 85.7496 60.4995C86.1303 61.0081 86.6164 61.4309 87.1754 61.7397C87.7344 62.0485 88.3537 62.2362 88.9919 62.2903C89.63 62.3444 90.2726 62.2637 90.8767 62.0536C91.4809 61.8435 92.0328 61.5087 92.4958 61.0716C93.4496 60.1874 94.0347 58.9834 94.1365 57.6955C94.1682 57.3293 94.1623 56.9609 94.119 56.5958C99.322 56.6718 104.158 57.6864 108.139 59.5425C110.53 60.6564 112.481 62.3282 113.778 64.3707C116.299 68.327 115.932 72.7571 112.819 75.9479C111.803 73.71 109.866 72.2468 107.665 72.0595C107.512 72.0433 107.353 72.0362 107.195 72.0362Z" fill="black" fill-opacity="0.2"/>
<g opacity="0.3">
<path d="M64.4208 75.3323C64.3766 76.3434 64.72 77.3338 65.3827 78.1058C66.9382 79.8556 69.4444 79.4566 71.1978 76.8522C71.6025 76.2294 72.0848 75.6592 72.6334 75.1551C77.4119 70.896 82.4179 72.6387 87.4609 75.2999C87.021 74.1961 85.7588 73.3617 83.2967 73.0427C71.9894 71.5572 73.6578 67.4561 73.6578 67.4561C72.5852 62.0751 78.425 58.1138 78.425 58.1138C70.5795 61.2468 64.6833 67.0177 64.4208 75.3323Z" fill="#050D2D"/>
<path d="M64.4208 75.3323C64.3766 76.3434 64.72 77.3338 65.3827 78.1058C66.9382 79.8556 69.4444 79.4566 71.1978 76.8522C71.6025 76.2294 72.0848 75.6592 72.6334 75.1551C77.4119 70.896 82.4179 72.6387 87.4609 75.2999C87.021 74.1961 85.7588 73.3617 83.2967 73.0427C71.9894 71.5572 73.6578 67.4561 73.6578 67.4561C72.5852 62.0751 78.425 58.1138 78.425 58.1138C70.5795 61.2468 64.6833 67.0177 64.4208 75.3323Z" fill="black" fill-opacity="0.2"/>
</g>
<path d="M109.5 67.6647C107.528 66.9317 105.513 66.3156 103.466 65.8197C101.418 65.3103 99.3433 64.9105 97.2517 64.6218C95.1569 64.3198 93.0461 64.1395 90.93 64.082C88.8058 64.0113 86.6793 64.0732 84.5631 64.2674C80.3435 64.6724 76.0358 65.6749 72.3391 68.0484C71.8685 68.3239 71.4521 68.6884 71.0061 69.0064C70.5867 69.3588 70.1745 69.7253 69.7817 70.1091L69.2249 70.7167L68.9481 71.0205L68.702 71.3526L68.2118 72.0179C68.0529 72.2427 67.9268 72.4888 67.7832 72.7267C66.6852 74.6283 66.0531 76.7572 65.9374 78.9432C65.9238 79.1312 65.9864 79.3168 66.1114 79.4592C66.2364 79.6016 66.4136 79.6892 66.604 79.7026C66.7943 79.7161 66.9823 79.6542 67.1265 79.5308C67.2708 79.4074 67.3594 79.2324 67.373 79.0444C67.5473 77.0749 68.1103 75.1611 69.1162 73.4994C70.1385 71.8254 71.5396 70.4081 73.2097 69.3588C74.877 68.2814 76.7546 67.5006 78.7008 66.9366C80.6657 66.3788 82.677 65.9945 84.7108 65.7883C88.8001 65.3519 92.9551 65.5159 97.0701 65.9523C101.198 66.4319 105.289 67.1833 109.316 68.2013C109.387 68.2199 109.464 68.2105 109.529 68.1751C109.593 68.1397 109.642 68.0811 109.664 68.0113C109.687 67.9415 109.681 67.8658 109.649 67.8C109.616 67.7342 109.559 67.6832 109.49 67.6576L109.5 67.6647Z" fill="#050D2D"/>
<path d="M109.5 67.6647C107.528 66.9317 105.513 66.3156 103.466 65.8197C101.418 65.3103 99.3433 64.9105 97.2517 64.6218C95.1569 64.3198 93.0461 64.1395 90.93 64.082C88.8058 64.0113 86.6793 64.0732 84.5631 64.2674C80.3435 64.6724 76.0358 65.6749 72.3391 68.0484C71.8685 68.3239 71.4521 68.6884 71.0061 69.0064C70.5867 69.3588 70.1745 69.7253 69.7817 70.1091L69.2249 70.7167L68.9481 71.0205L68.702 71.3526L68.2118 72.0179C68.0529 72.2427 67.9268 72.4888 67.7832 72.7267C66.6852 74.6283 66.0531 76.7572 65.9374 78.9432C65.9238 79.1312 65.9864 79.3168 66.1114 79.4592C66.2364 79.6016 66.4136 79.6892 66.604 79.7026C66.7943 79.7161 66.9823 79.6542 67.1265 79.5308C67.2708 79.4074 67.3594 79.2324 67.373 79.0444C67.5473 77.0749 68.1103 75.1611 69.1162 73.4994C70.1385 71.8254 71.5396 70.4081 73.2097 69.3588C74.877 68.2814 76.7546 67.5006 78.7008 66.9366C80.6657 66.3788 82.677 65.9945 84.7108 65.7883C88.8001 65.3519 92.9551 65.5159 97.0701 65.9523C101.198 66.4319 105.289 67.1833 109.316 68.2013C109.387 68.2199 109.464 68.2105 109.529 68.1751C109.593 68.1397 109.642 68.0811 109.664 68.0113C109.687 67.9415 109.681 67.8658 109.649 67.8C109.616 67.7342 109.559 67.6832 109.49 67.6576L109.5 67.6647Z" fill="black" fill-opacity="0.2"/>
<path d="M91.2489 65.5334C91.5638 65.5307 91.8782 65.5595 92.1872 65.6195C92.5116 65.679 92.8303 65.7657 93.1398 65.8787C93.7598 66.1028 94.3238 66.4557 94.7938 66.9136C94.9166 67.0231 95.0295 67.1431 95.1312 67.2721C95.2449 67.3929 95.3449 67.5257 95.4295 67.668L95.6962 68.0923L95.9064 68.553C95.9835 68.7053 96.0434 68.8657 96.0848 69.031L96.2366 69.5251C96.3135 69.8613 96.3606 70.2086 96.4252 70.5529L96.4355 70.6005C96.4422 70.6466 96.4581 70.6909 96.4822 70.7309C96.5062 70.771 96.5381 70.8059 96.5758 70.8338C96.6136 70.8617 96.6565 70.8819 96.7022 70.8934C96.7479 70.9049 96.7954 70.9074 96.8421 70.9008C96.8887 70.8941 96.9336 70.8784 96.9741 70.8547C97.0147 70.8309 97.0501 70.7995 97.0783 70.7622C97.1065 70.7249 97.127 70.6825 97.1387 70.6374C97.1503 70.5923 97.1528 70.5453 97.1461 70.4993C97.1092 70.1236 97.0877 69.7428 97.0333 69.3651L96.9113 68.8011C96.8771 68.6097 96.8239 68.4222 96.7524 68.2411L96.5524 67.6882C96.4673 67.511 96.3709 67.3358 96.2796 67.1596C96.1898 66.9811 96.0826 66.8115 95.9597 66.6533C95.8495 66.4845 95.7253 66.325 95.5885 66.1764C95.0508 65.5621 94.3866 65.0681 93.6402 64.7274C93.2705 64.5564 92.8866 64.4172 92.4928 64.3112C92.0852 64.1977 91.6665 64.1274 91.2438 64.1016C91.0523 64.0895 90.8639 64.153 90.7198 64.2781C90.5758 64.4033 90.488 64.5798 90.4758 64.7689C90.4635 64.9579 90.5278 65.1441 90.6546 65.2863C90.7813 65.4285 90.96 65.5152 91.1515 65.5273C91.1713 65.5283 91.1912 65.5283 91.211 65.5273L91.2489 65.5334Z" fill="#050D2D"/>
<path d="M91.2489 65.5334C91.5638 65.5307 91.8782 65.5595 92.1872 65.6195C92.5116 65.679 92.8303 65.7657 93.1398 65.8787C93.7598 66.1028 94.3238 66.4557 94.7938 66.9136C94.9166 67.0231 95.0295 67.1431 95.1312 67.2721C95.2449 67.3929 95.3449 67.5257 95.4295 67.668L95.6962 68.0923L95.9064 68.553C95.9835 68.7053 96.0434 68.8657 96.0848 69.031L96.2366 69.5251C96.3135 69.8613 96.3606 70.2086 96.4252 70.5529L96.4355 70.6005C96.4422 70.6466 96.4581 70.6909 96.4822 70.7309C96.5062 70.771 96.5381 70.8059 96.5758 70.8338C96.6136 70.8617 96.6565 70.8819 96.7022 70.8934C96.7479 70.9049 96.7954 70.9074 96.8421 70.9008C96.8887 70.8941 96.9336 70.8784 96.9741 70.8547C97.0147 70.8309 97.0501 70.7995 97.0783 70.7622C97.1065 70.7249 97.127 70.6825 97.1387 70.6374C97.1503 70.5923 97.1528 70.5453 97.1461 70.4993C97.1092 70.1236 97.0877 69.7428 97.0333 69.3651L96.9113 68.8011C96.8771 68.6097 96.8239 68.4222 96.7524 68.2411L96.5524 67.6882C96.4673 67.511 96.3709 67.3358 96.2796 67.1596C96.1898 66.9811 96.0826 66.8115 95.9597 66.6533C95.8495 66.4845 95.7253 66.325 95.5885 66.1764C95.0508 65.5621 94.3866 65.0681 93.6402 64.7274C93.2705 64.5564 92.8866 64.4172 92.4928 64.3112C92.0852 64.1977 91.6665 64.1274 91.2438 64.1016C91.0523 64.0895 90.8639 64.153 90.7198 64.2781C90.5758 64.4033 90.488 64.5798 90.4758 64.7689C90.4635 64.9579 90.5278 65.1441 90.6546 65.2863C90.7813 65.4285 90.96 65.5152 91.1515 65.5273C91.1713 65.5283 91.1912 65.5283 91.211 65.5273L91.2489 65.5334Z" fill="black" fill-opacity="0.2"/>
<path d="M82.901 61.2795C82.1888 61.3804 81.4969 61.5901 80.8501 61.9013C80.2053 62.2031 79.5999 62.5812 79.0474 63.0273C78.4963 63.4779 77.9973 63.9873 77.5596 64.5462C77.3237 64.8166 77.1494 65.1234 76.9443 65.412C76.7546 65.7158 76.5895 66.0196 76.4111 66.3304C76.3201 66.4948 76.298 66.6879 76.3497 66.8681C76.4013 67.0484 76.5226 67.2014 76.6873 67.2943C76.852 67.3872 77.0471 67.4125 77.2306 67.3648C77.414 67.3171 77.5712 67.2002 77.6683 67.0393C77.6775 67.0221 77.6867 67.0048 77.6949 66.9876L77.7247 66.9249C77.8569 66.6434 77.9769 66.3537 78.1184 66.0763C78.2784 65.811 78.4066 65.5214 78.5911 65.2712C78.9294 64.7469 79.3256 64.2612 79.7724 63.8232C80.2235 63.3859 80.7269 63.0047 81.2716 62.6881C81.8078 62.3673 82.3899 62.1284 82.9984 61.9792L83.0343 61.9711C83.1267 61.953 83.2082 61.8998 83.2614 61.823C83.3145 61.7462 83.335 61.6518 83.3185 61.5602C83.302 61.4686 83.2498 61.3871 83.1731 61.3331C83.0963 61.2791 83.0012 61.2569 82.9082 61.2714L82.901 61.2795Z" fill="#050D2D"/>
<path d="M82.901 61.2795C82.1888 61.3804 81.4969 61.5901 80.8501 61.9013C80.2053 62.2031 79.5999 62.5812 79.0474 63.0273C78.4963 63.4779 77.9973 63.9873 77.5596 64.5462C77.3237 64.8166 77.1494 65.1234 76.9443 65.412C76.7546 65.7158 76.5895 66.0196 76.4111 66.3304C76.3201 66.4948 76.298 66.6879 76.3497 66.8681C76.4013 67.0484 76.5226 67.2014 76.6873 67.2943C76.852 67.3872 77.0471 67.4125 77.2306 67.3648C77.414 67.3171 77.5712 67.2002 77.6683 67.0393C77.6775 67.0221 77.6867 67.0048 77.6949 66.9876L77.7247 66.9249C77.8569 66.6434 77.9769 66.3537 78.1184 66.0763C78.2784 65.811 78.4066 65.5214 78.5911 65.2712C78.9294 64.7469 79.3256 64.2612 79.7724 63.8232C80.2235 63.3859 80.7269 63.0047 81.2716 62.6881C81.8078 62.3673 82.3899 62.1284 82.9984 61.9792L83.0343 61.9711C83.1267 61.953 83.2082 61.8998 83.2614 61.823C83.3145 61.7462 83.335 61.6518 83.3185 61.5602C83.302 61.4686 83.2498 61.3871 83.1731 61.3331C83.0963 61.2791 83.0012 61.2569 82.9082 61.2714L82.901 61.2795Z" fill="black" fill-opacity="0.2"/>
<g opacity="0.3">
<path d="M85.6922 74.4132C86.2801 74.6927 86.868 74.9884 87.4559 75.3002C88.5757 75.8926 89.6985 76.5286 90.8213 77.1574C94.0832 79.1198 97.2487 80.2367 100.182 80.6792C100.351 80.7036 100.523 80.6934 100.687 80.6492C100.851 80.605 101.005 80.5278 101.137 80.4224C101.27 80.317 101.38 80.1856 101.458 80.0366C101.537 79.8876 101.584 79.724 101.596 79.5563V79.5421C101.918 75.843 104.59 73.0492 107.562 73.3013C108.246 73.3607 108.906 73.5759 109.49 73.9302C108.857 71.0837 103.701 71.0189 101.688 72.1226C100.61 72.711 99.7271 73.6102 98.6381 74.1762C97.1236 74.957 95.3301 75.0309 93.632 74.8395C91.9339 74.6481 90.2717 74.2147 88.5726 74.0416C87.6067 73.9494 86.5177 73.993 85.6922 74.4132Z" fill="#050D2D"/>
<path d="M85.6922 74.4132C86.2801 74.6927 86.868 74.9884 87.4559 75.3002C88.5757 75.8926 89.6985 76.5286 90.8213 77.1574C94.0832 79.1198 97.2487 80.2367 100.182 80.6792C100.351 80.7036 100.523 80.6934 100.687 80.6492C100.851 80.605 101.005 80.5278 101.137 80.4224C101.27 80.317 101.38 80.1856 101.458 80.0366C101.537 79.8876 101.584 79.724 101.596 79.5563V79.5421C101.918 75.843 104.59 73.0492 107.562 73.3013C108.246 73.3607 108.906 73.5759 109.49 73.9302C108.857 71.0837 103.701 71.0189 101.688 72.1226C100.61 72.711 99.7271 73.6102 98.6381 74.1762C97.1236 74.957 95.3301 75.0309 93.632 74.8395C91.9339 74.6481 90.2717 74.2147 88.5726 74.0416C87.6067 73.9494 86.5177 73.993 85.6922 74.4132Z" fill="black" fill-opacity="0.2"/>
</g>
</g>
<defs>
<clipPath id="clip0_1276_19754">
<rect width="118" height="140" fill="white" transform="matrix(-1 0 0 1 118 0)"/>
</clipPath>
</defs>
</svg>
